<?xml version="1.0" encoding="UTF-8" standalone="no"?>
<!-- Created with Inkscape (http://www.inkscape.org/) -->

<svg
   xmlns:dc="http://purl.org/dc/elements/1.1/"
   xmlns:cc="http://creativecommons.org/ns#"
   xmlns:rdf="http://www.w3.org/1999/02/22-rdf-syntax-ns#"
   xmlns:svg="http://www.w3.org/2000/svg"
   xmlns="http://www.w3.org/2000/svg"
   xmlns:sodipodi="http://sodipodi.sourceforge.net/DTD/sodipodi-0.dtd"
   xmlns:inkscape="http://www.inkscape.org/namespaces/inkscape"
   width="107.72826mm"
   height="32.757935mm"
   viewBox="0 0 381.71429 116.07142"
   id="svg2"
   version="1.1"
   inkscape:version="0.92.3 (2405546, 2018-03-11)"
   sodipodi:docname="geteta-logo.svg">
  <defs
     id="defs4" />
  <sodipodi:namedview
     id="base"
     pagecolor="#ffffff"
     bordercolor="#666666"
     borderopacity="1.0"
     inkscape:pageopacity="0.0"
     inkscape:pageshadow="2"
     inkscape:zoom="4.26"
     inkscape:cx="199.49237"
     inkscape:cy="33.012416"
     inkscape:document-units="px"
     inkscape:current-layer="layer1"
     showgrid="false"
     showguides="true"
     inkscape:guide-bbox="true"
     fit-margin-top="0"
     fit-margin-left="0"
     fit-margin-right="0"
     fit-margin-bottom="0"
     inkscape:window-width="1920"
     inkscape:window-height="1016"
     inkscape:window-x="0"
     inkscape:window-y="27"
     inkscape:window-maximized="1">
    <sodipodi:guide
       position="258.89286,116.07143"
       orientation="0,1"
       id="guide4142"
       inkscape:locked="false" />
    <sodipodi:guide
       position="106.20527,159.62208"
       orientation="0,1"
       id="guide4162"
       inkscape:locked="false" />
    <sodipodi:guide
       position="75.395612,15.170267"
       orientation="0,1"
       id="guide4164"
       inkscape:locked="false" />
    <sodipodi:guide
       position="78.426072,72.748967"
       orientation="0,1"
       id="guide4166"
       inkscape:locked="false" />
    <sodipodi:guide
       position="4.785717,93.571427"
       orientation="0,1"
       id="guide4244"
       inkscape:locked="false" />
    <sodipodi:guide
       position="302.15668,102.11267"
       orientation="0,1"
       id="guide36"
       inkscape:locked="false" />
  </sodipodi:namedview>
  <metadata
     id="metadata7">
    <rdf:RDF>
      <cc:Work
         rdf:about="">
        <dc:format>image/svg+xml</dc:format>
        <dc:type
           rdf:resource="http://purl.org/dc/dcmitype/StillImage" />
        <dc:title></dc:title>
      </cc:Work>
    </rdf:RDF>
  </metadata>
  <g
     inkscape:label="Layer 1"
     inkscape:groupmode="layer"
     id="layer1"
     transform="translate(-70.571426,-88.790775)">
    <path
       style="fill:#b3b3b3;stroke:#000000;stroke-width:1.00115299"
       d="M 71.072006,89.773491 H 451.8744 V 118.79019 H 71.072006 Z"
       id="rect4172" />
    <g
       aria-label="Ge"
       style="font-style:normal;font-weight:normal;font-size:9.25423622px;line-height:0%;font-family:sans-serif;letter-spacing:0px;word-spacing:0px;fill:#000000;fill-opacity:1;stroke:none;stroke-width:0.77118635px;stroke-linecap:butt;stroke-linejoin:miter;stroke-opacity:1"
       id="text4150">
      <path
         d="m 124.3861,180.43584 v -14.60913 h -12.02248 v -6.04767 h 19.30883 v 23.35275 q -4.26252,3.02383 -9.39939,4.5904 -5.13688,1.53013 -10.96596,1.53013 -12.751111,0 -19.964596,-7.43207 -7.177054,-7.46851 -7.177054,-20.7661 0,-13.33402 7.177054,-20.76609 7.213485,-7.46851 19.964596,-7.46851 5.31903,0 10.09159,1.31154 4.80899,1.31154 8.85292,3.86177 v 7.83282 q -4.08036,-3.46101 -8.67076,-5.20974 -4.5904,-1.74872 -9.65441,-1.74872 -9.9823,0 -15.009879,5.57406 -4.991149,5.57405 -4.991149,16.61287 0,11.00239 4.991149,16.57644 5.027579,5.57406 15.009879,5.57406 3.8982,0 6.95846,-0.65577 3.06027,-0.6922 5.5012,-2.11304 z"
         style="font-style:normal;font-variant:normal;font-weight:normal;font-stretch:normal;font-size:74.61221313px;line-height:1.25;font-family:Gabriola;-inkscape-font-specification:Gabriola;stroke-width:0.77118635px"
         id="path30" />
      <path
         d="m 179.76235,166.11816 v 3.27886 h -30.82126 q 0.43718,6.92203 4.15322,10.56521 3.75247,3.60674 10.41948,3.60674 3.86177,0 7.46851,-0.94723 3.64317,-0.94722 7.21348,-2.84167 v 6.33912 q -3.60674,1.53013 -7.39564,2.33163 -3.7889,0.8015 -7.6871,0.8015 -9.76371,0 -15.48349,-5.68335 -5.68335,-5.68335 -5.68335,-15.3742 0,-10.01873 5.3919,-15.88424 5.42833,-5.90194 14.60913,-5.90194 8.23357,0 13.00613,5.31903 4.80899,5.28261 4.80899,14.39054 z m -6.70344,-1.96731 q -0.0729,-5.50119 -3.0967,-8.78005 -2.9874,-3.27886 -7.94212,-3.27886 -5.61049,0 -8.99864,3.16956 -3.35172,3.16957 -3.86177,8.92578 z"
         style="font-style:normal;font-variant:normal;font-weight:normal;font-stretch:normal;font-size:74.61221313px;line-height:1.25;font-family:Gabriola;-inkscape-font-specification:Gabriola;stroke-width:0.77118635px"
         id="path32" />
    </g>
    <g
       aria-label="Te"
       style="font-style:normal;font-weight:normal;line-height:0%;font-family:sans-serif;letter-spacing:0px;word-spacing:0px;fill:#000000;fill-opacity:1;stroke:none;stroke-width:1px;stroke-linecap:butt;stroke-linejoin:miter;stroke-opacity:1"
       id="text4154">
      <path
         d="m 220.01905,133.03785 h 47.36629 v 6.37551 h -19.87659 v 49.61647 h -7.61311 v -49.61647 h -19.87659 z"
         style="font-size:76.80614471px;line-height:1.25"
         id="path35" />
      <path
         d="m 297.31273,166.30301 v 3.37527 h -31.72754 q 0.45004,7.12557 4.27535,10.87587 3.8628,3.7128 10.72585,3.7128 3.97532,0 7.68812,-0.97508 3.7503,-0.97508 7.42559,-2.92523 v 6.52552 q -3.71279,1.57513 -7.61311,2.40019 -3.90031,0.82507 -7.91313,0.82507 -10.0508,0 -15.93877,-5.85047 -5.85047,-5.85047 -5.85047,-15.82627 0,-10.31332 5.55044,-16.3513 5.58795,-6.07549 15.0387,-6.07549 8.47568,0 13.38858,5.47544 4.95039,5.43793 4.95039,14.81368 z m -6.90055,-2.02516 q -0.075,-5.66295 -3.18776,-9.03822 -3.07524,-3.37527 -8.17565,-3.37527 -5.77546,0 -9.26324,3.26276 -3.45028,3.26276 -3.97532,9.18823 z"
         style="font-size:76.80614471px;line-height:1.25"
         id="path37" />
    </g>
    <g
       aria-label="Ta"
       style="font-style:normal;font-weight:normal;line-height:0%;font-family:sans-serif;letter-spacing:0px;word-spacing:0px;fill:#000000;fill-opacity:1;stroke:none;stroke-width:1px;stroke-linecap:butt;stroke-linejoin:miter;stroke-opacity:1"
       id="text4158">
      <path
         d="m 350.54206,132.56535 h 48.40857 v 6.5158 h -20.31396 v 50.70826 h -7.78064 v -50.70826 h -20.31397 z"
         style="font-size:78.49623871px;line-height:1.25"
         id="path40" />
      <path
         d="m 412.63382,168.21061 q -8.5472,0 -11.84343,1.95474 -3.29623,1.95474 -3.29623,6.66912 0,3.75617 2.45301,5.9792 2.49133,2.18471 6.74577,2.18471 5.86422,0 9.39042,-4.13945 3.56452,-4.17778 3.56452,-11.07686 v -1.57146 z m 14.06646,-2.91294 v 24.49174 h -7.0524 v -6.5158 q -2.41468,3.90948 -6.01753,5.78757 -3.60285,1.83975 -8.8155,1.83975 -6.59245,0 -10.50193,-3.67951 -3.87116,-3.71784 -3.87116,-9.92701 0,-7.24404 4.82936,-10.92355 4.86769,-3.67951 14.48808,-3.67951 h 9.88868 v -0.68991 q 0,-4.86769 -3.21957,-7.51234 -3.18124,-2.68297 -8.96881,-2.68297 -3.67951,0 -7.16738,0.88155 -3.48787,0.88155 -6.70744,2.64464 v -6.5158 q 3.87115,-1.4948 7.51234,-2.22303 3.64118,-0.76657 7.09072,-0.76657 9.31376,0 13.91315,4.82936 4.59939,4.82936 4.59939,14.64139 z"
         style="font-size:78.49623871px;line-height:1.25"
         id="path42" />
    </g>
    <path
       style="fill:none;stroke:#000000"
       d="M 71.071426,118.81376 H 451.78572 V 204.1709 H 71.071426 Z"
       id="rect4178" />
    <path
       style="fill:none;fill-rule:evenodd;stroke:#000000;stroke-width:1px;stroke-linecap:butt;stroke-linejoin:miter;stroke-opacity:1"
       d="m 191.42857,88.790775 0,116.071425"
       id="path4180"
       inkscape:connector-curvature="0" />
    <path
       inkscape:connector-curvature="0"
       id="path4208"
       d="m 329.28571,88.790775 0,116.071425"
       style="fill:none;fill-rule:evenodd;stroke:#000000;stroke-width:1px;stroke-linecap:butt;stroke-linejoin:miter;stroke-opacity:1" />
    <g
       aria-label="INPUT"
       style="font-style:normal;font-weight:normal;line-height:0%;font-family:sans-serif;letter-spacing:0px;word-spacing:0px;fill:#000000;fill-opacity:1;stroke:none;stroke-width:1px;stroke-linecap:butt;stroke-linejoin:miter;stroke-opacity:1"
       id="text4210">
      <path
         d="m 112.4521,103.1513 h 1.09757 v 8.11222 h -1.09757 z"
         style="font-size:11.12781906px;line-height:1.25"
         id="path46" />
      <path
         d="m 115.73393,103.1513 h 1.47792 l 3.59698,6.78644 v -6.78644 h 1.06497 v 8.11222 h -1.47792 l -3.59698,-6.78645 v 6.78645 h -1.06497 z"
         style="font-size:11.12781906px;line-height:1.25"
         id="path48" />
      <path
         d="m 125.15563,104.05326 v 3.04819 h 1.38011 q 0.76613,0 1.18451,-0.39664 0.41838,-0.39665 0.41838,-1.13017 0,-0.72809 -0.41838,-1.12474 -0.41838,-0.39664 -1.18451,-0.39664 z m -1.09757,-0.90196 h 2.47768 q 1.36381,0 2.0593,0.61942 0.70092,0.61398 0.70092,1.80392 0,1.2008 -0.70092,1.81479 -0.69549,0.61399 -2.0593,0.61399 h -1.38011 v 3.2601 h -1.09757 z"
         style="font-size:11.12781906px;line-height:1.25"
         id="path50" />
      <path
         d="m 130.64891,103.1513 h 1.103 v 4.92819 q 0,1.30404 0.47271,1.87999 0.47272,0.57052 1.53225,0.57052 1.0541,0 1.52682,-0.57052 0.47271,-0.57595 0.47271,-1.87999 v -4.92819 h 1.103 v 5.06402 q 0,1.58659 -0.78786,2.39618 -0.78242,0.80959 -2.31467,0.80959 -1.53768,0 -2.32554,-0.80959 -0.78242,-0.80959 -0.78242,-2.39618 z"
         style="font-size:11.12781906px;line-height:1.25"
         id="path52" />
      <path
         d="m 137.7994,103.1513 h 6.86252 v 0.92369 h -2.87976 v 7.18853 h -1.103 v -7.18853 h -2.87976 z"
         style="font-size:11.12781906px;line-height:1.25"
         id="path54" />
    </g>
    <g
       aria-label="OUTPUT"
       style="font-style:normal;font-weight:normal;line-height:0%;font-family:sans-serif;letter-spacing:0px;word-spacing:0px;fill:#000000;fill-opacity:1;stroke:none;stroke-width:1px;stroke-linecap:butt;stroke-linejoin:miter;stroke-opacity:1"
       id="text4232">
      <path
         d="m 245.24481,103.97991 q -1.19537,0 -1.90173,0.89109 -0.70092,0.8911 -0.70092,2.42878 0,1.53225 0.70092,2.42334 0.70636,0.8911 1.90173,0.8911 1.19537,0 1.89086,-0.8911 0.70092,-0.89109 0.70092,-2.42334 0,-1.53768 -0.70092,-2.42878 -0.69549,-0.89109 -1.89086,-0.89109 z m 0,-0.8911 q 1.70612,0 2.72762,1.14647 1.0215,1.14104 1.0215,3.0645 0,1.91803 -1.0215,3.0645 -1.0215,1.14103 -2.72762,1.14103 -1.71156,0 -2.73849,-1.14103 -1.0215,-1.14104 -1.0215,-3.0645 0,-1.92346 1.0215,-3.0645 1.02693,-1.14647 2.73849,-1.14647 z"
         style="font-size:11.12781906px;line-height:1.25"
         id="path57" />
      <path
         d="m 250.58595,103.23552 h 1.103 v 4.92819 q 0,1.30404 0.47271,1.87999 0.47272,0.57052 1.53225,0.57052 1.0541,0 1.52682,-0.57052 0.47271,-0.57595 0.47271,-1.87999 v -4.92819 h 1.103 v 5.06402 q 0,1.58659 -0.78786,2.39618 -0.78242,0.80959 -2.31467,0.80959 -1.53768,0 -2.32554,-0.80959 -0.78242,-0.80959 -0.78242,-2.39618 z"
         style="font-size:11.12781906px;line-height:1.25"
         id="path59" />
      <path
         d="m 257.73644,103.23552 h 6.86252 v 0.92369 h -2.87976 v 7.18853 h -1.103 v -7.18853 h -2.87976 z"
         style="font-size:11.12781906px;line-height:1.25"
         id="path61" />
      <path
         d="m 266.76149,104.13748 v 3.0482 h 1.38011 q 0.76613,0 1.18451,-0.39665 0.41838,-0.39665 0.41838,-1.13017 0,-0.72809 -0.41838,-1.12474 -0.41838,-0.39664 -1.18451,-0.39664 z m -1.09757,-0.90196 h 2.47768 q 1.36381,0 2.0593,0.61942 0.70092,0.61398 0.70092,1.80392 0,1.2008 -0.70092,1.81479 -0.69549,0.61399 -2.0593,0.61399 h -1.38011 v 3.2601 h -1.09757 z"
         style="font-size:11.12781906px;line-height:1.25"
         id="path63" />
      <path
         d="m 272.25477,103.23552 h 1.103 v 4.92819 q 0,1.30404 0.47271,1.87999 0.47272,0.57052 1.53225,0.57052 1.0541,0 1.52682,-0.57052 0.47271,-0.57595 0.47271,-1.87999 v -4.92819 h 1.103 v 5.06402 q 0,1.58659 -0.78786,2.39618 -0.78242,0.80959 -2.31467,0.80959 -1.53768,0 -2.32554,-0.80959 -0.78242,-0.80959 -0.78242,-2.39618 z"
         style="font-size:11.12781906px;line-height:1.25"
         id="path65" />
      <path
         d="m 279.40526,103.23552 h 6.86251 v 0.92369 h -2.87975 v 7.18853 h -1.103 v -7.18853 h -2.87976 z"
         style="font-size:11.12781906px;line-height:1.25"
         id="path67" />
    </g>
    <g
       aria-label="â²"
       style="font-style:normal;font-weight:normal;font-size:14.0625px;line-height:23.4375px;font-family:sans-serif;letter-spacing:0px;word-spacing:0px;fill:#000000;fill-opacity:1;stroke:none;stroke-width:0.93749994px;stroke-linecap:butt;stroke-linejoin:miter;stroke-opacity:1"
       id="text34">
      <path
         d="m 387.85685,105.51461 0.14062,-0.26719 3.17813,1.27969 -0.45,0.92813 z m 2.41875,-1.92656 v -0.52031 h 0.47812 v 0.52031 z m 0,7.03125 v -0.52031 h 0.47812 v 0.52031 z m 3.58594,-3.51563 v -0.52031 h 0.47812 v 0.52031 z m -7.07344,0 v -0.52031 h 0.47812 v 0.52031 z m 6.82031,-1.70156 -0.26719,-0.45 0.42188,-0.23906 0.25312,0.45 z m -6.20156,3.58594 -0.25313,-0.45 0.40782,-0.23906 0.25312,0.45 z m 4.59844,0.87187 0.45,-0.25312 0.23906,0.40781 -0.45,0.26719 z m -3.61407,-6.20156 0.45,-0.26719 0.23907,0.42188 -0.45,0.25312 z m 4.09219,0.42188 -0.45,-0.25313 0.23906,-0.42187 0.45,0.26718 z m -3.57187,6.20156 -0.45,-0.25313 0.23906,-0.42187 0.45,0.26719 z m 4.41562,-1.53281 0.25313,-0.45 0.42187,0.23906 -0.26719,0.45 z m -6.22969,-3.57188 0.26719,-0.45 0.40781,0.23906 -0.26718,0.45 z m 5.21719,5.87813 q -0.84375,0.36562 -1.77187,0.36562 -0.92813,0 -1.78594,-0.36562 -0.84375,-0.36563 -1.4625,-0.97032 -0.60469,-0.61875 -0.97031,-1.4625 -0.36563,-0.85781 -0.36563,-1.78593 0,-0.92813 0.36563,-1.77188 0.36562,-0.85781 0.97031,-1.4625 0.61875,-0.61875 1.4625,-0.98437 0.85781,-0.36563 1.78594,-0.36563 0.92812,0 1.77187,0.36563 0.85781,0.36562 1.4625,0.98437 0.61875,0.60469 0.98438,1.4625 0.36562,0.84375 0.36562,1.77188 0,0.92812 -0.36562,1.78593 -0.36563,0.84375 -0.98438,1.4625 -0.60469,0.60469 -1.4625,0.97032 z m -4.6125,-1.37813 q 1.18125,1.18125 2.84063,1.18125 1.65937,0 2.84062,-1.18125 1.18125,-1.18125 1.18125,-2.84062 0,-1.65938 -1.18125,-2.84063 -1.18125,-1.18125 -2.84062,-1.18125 -1.65938,0 -2.84063,1.18125 -1.18125,1.18125 -1.18125,2.84063 0,1.65937 1.18125,2.84062 z"
         style="stroke-width:0.93749994px"
         id="path70" />
    </g>
  </g>
</svg>
