<?xml version="1.0" encoding="UTF-8" standalone="no"?>
<!-- Created with Inkscape (http://www.inkscape.org/) -->

<svg
   xmlns:dc="http://purl.org/dc/elements/1.1/"
   xmlns:cc="http://creativecommons.org/ns#"
   xmlns:rdf="http://www.w3.org/1999/02/22-rdf-syntax-ns#"
   xmlns:svg="http://www.w3.org/2000/svg"
   xmlns="http://www.w3.org/2000/svg"
   xmlns:sodipodi="http://sodipodi.sourceforge.net/DTD/sodipodi-0.dtd"
   xmlns:inkscape="http://www.inkscape.org/namespaces/inkscape"
   width="63.107731mm"
   height="50.143394mm"
   viewBox="0 0 223.61007 177.67344"
   id="svg2"
   version="1.1"
   inkscape:version="0.92.3 (2405546, 2018-03-11)"
   sodipodi:docname="improve-aps-logo.svg">
  <defs
     id="defs4" />
  <sodipodi:namedview
     id="base"
     pagecolor="#ffffff"
     bordercolor="#666666"
     borderopacity="1.0"
     inkscape:pageopacity="0.0"
     inkscape:pageshadow="2"
     inkscape:zoom="1.8169852"
     inkscape:cx="111.30819"
     inkscape:cy="201.43258"
     inkscape:document-units="px"
     inkscape:current-layer="layer1"
     showgrid="false"
     inkscape:window-width="1920"
     inkscape:window-height="1016"
     inkscape:window-x="0"
     inkscape:window-y="27"
     inkscape:window-maximized="1"
     showguides="true"
     inkscape:guide-bbox="true"
     inkscape:snap-bbox="true"
     inkscape:snap-bbox-midpoints="true"
     inkscape:snap-global="false"
     fit-margin-top="0"
     fit-margin-left="0"
     fit-margin-right="0"
     fit-margin-bottom="0">
    <sodipodi:guide
       position="62.681186,167.99432"
       orientation="1,0"
       id="guide4205"
       inkscape:locked="false" />
    <sodipodi:guide
       position="176.78915,210.44087"
       orientation="1,0"
       id="guide4214"
       inkscape:locked="false" />
  </sodipodi:namedview>
  <metadata
     id="metadata7">
    <rdf:RDF>
      <cc:Work
         rdf:about="">
        <dc:format>image/svg+xml</dc:format>
        <dc:type
           rdf:resource="http://purl.org/dc/dcmitype/StillImage" />
        <dc:title></dc:title>
      </cc:Work>
    </rdf:RDF>
  </metadata>
  <g
     inkscape:label="Ebene 1"
     inkscape:groupmode="layer"
     id="layer1"
     transform="translate(-109.29728,-333.05096)">
    <g
       aria-label=" "
       style="font-style:normal;font-weight:normal;line-height:0%;font-family:sans-serif;letter-spacing:0px;word-spacing:0px;fill:#000000;fill-opacity:1;stroke:none;stroke-width:1px;stroke-linecap:butt;stroke-linejoin:miter;stroke-opacity:1"
       id="text4174" />
    <g
       id="g4245"
       transform="translate(0,156.58807)">
      <path
         id="path4136"
         d="m 228.10352,176.46289 -45.31446,80.72461 a 32.901688,31.444784 0 0 1 21.07813,8.16602 L 228.10352,222.17969 255.50977,271 l 27.4082,48.81836 -54.81445,0 -42.91797,0 a 32.901688,31.444784 0 0 1 -3.4375,0.20898 32.901688,31.444784 0 0 1 -3.63672,-0.20898 l -4.82227,0 0.4375,-0.7793 a 32.901688,31.444784 0 0 1 -18.77148,-12.27344 l -17.88672,31.85938 91.03516,0 91.03515,0 -45.51953,-81.08008 -45.51562,-81.08203 z"
         style="fill:#b3b3b3;stroke-width:0.001;stroke-miterlimit:4;stroke-dasharray:none"
         inkscape:connector-curvature="0" />
      <g
         aria-label="IMPROVE"
         style="font-style:normal;font-variant:normal;font-weight:bold;font-stretch:normal;line-height:0%;font-family:Arial;-inkscape-font-specification:'Arial, Bold';text-align:start;letter-spacing:-2px;word-spacing:0px;writing-mode:lr-tb;text-anchor:start;fill:#000000;fill-opacity:1;stroke:#000000;stroke-width:0;stroke-linecap:butt;stroke-linejoin:miter;stroke-miterlimit:4;stroke-dasharray:none;stroke-opacity:1"
         id="text4142-8-9">
        <path
           d="m 124.81038,215.53815 h 8.24329 v 31.96682 h -8.24329 z"
           style="font-style:normal;font-variant:normal;font-weight:bold;font-stretch:normal;font-size:43.85000229px;line-height:125%;font-family:'DejaVu Sans';-inkscape-font-specification:'DejaVu Sans, Bold';text-align:start;letter-spacing:-2px;word-spacing:0px;writing-mode:lr-tb;text-anchor:start;fill:#000000;stroke:#000000;stroke-width:0;stroke-miterlimit:4;stroke-dasharray:none"
           id="path23" />
        <path
           d="m 139.16849,215.53815 h 10.49145 l 7.27979,17.1075 7.32261,-17.1075 h 10.47004 v 31.96682 h -7.79365 v -23.38095 l -7.36543,17.23596 h -5.22432 l -7.36543,-17.23596 v 23.38095 h -7.81506 z"
           style="font-style:normal;font-variant:normal;font-weight:bold;font-stretch:normal;font-size:43.85000229px;line-height:125%;font-family:'DejaVu Sans';-inkscape-font-specification:'DejaVu Sans, Bold';text-align:start;letter-spacing:-2px;word-spacing:0px;writing-mode:lr-tb;text-anchor:start;fill:#000000;stroke:#000000;stroke-width:0;stroke-miterlimit:4;stroke-dasharray:none"
           id="path25" />
        <path
           d="m 180.8472,215.53815 h 13.68171 q 6.10218,0 9.35667,2.71922 3.2759,2.6978 3.2759,7.708 0,5.03162 -3.2759,7.75083 -3.25449,2.69781 -9.35667,2.69781 h -5.43842 v 11.09096 h -8.24329 z m 8.24329,5.97371 v 8.92844 h 4.56057 q 2.39805,0 3.70412,-1.1562 1.30608,-1.17761 1.30608,-3.31873 0,-2.14111 -1.30608,-3.29731 -1.30607,-1.1562 -3.70412,-1.1562 z"
           style="font-style:normal;font-variant:normal;font-weight:bold;font-stretch:normal;font-size:43.85000229px;line-height:125%;font-family:'DejaVu Sans';-inkscape-font-specification:'DejaVu Sans, Bold';text-align:start;letter-spacing:-2px;word-spacing:0px;writing-mode:lr-tb;text-anchor:start;fill:#000000;stroke:#000000;stroke-width:0;stroke-miterlimit:4;stroke-dasharray:none"
           id="path27" />
        <path
           d="m 222.67579,229.71232 q 2.59075,0 3.70413,-0.9635 1.13479,-0.9635 1.13479,-3.16885 0,-2.18393 -1.13479,-3.12602 -1.11338,-0.94209 -3.70413,-0.94209 h -3.4686 v 8.20046 z m -3.4686,5.69536 v 12.09729 h -8.24329 v -31.96682 h 12.58975 q 6.31628,0 9.24961,2.1197 2.95473,2.11971 2.95473,6.70169 0,3.16885 -1.5416,5.2029 -1.52019,2.03406 -4.60339,2.99756 1.69148,0.3854 3.01897,1.75572 1.3489,1.3489 2.71921,4.11093 l 4.47493,9.07832 h -8.77857 l -3.89682,-7.94353 q -1.17762,-2.39804 -2.39805,-3.2759 -1.19902,-0.87786 -3.21167,-0.87786 z"
           style="font-style:normal;font-variant:normal;font-weight:bold;font-stretch:normal;font-size:43.85000229px;line-height:125%;font-family:'DejaVu Sans';-inkscape-font-specification:'DejaVu Sans, Bold';text-align:start;letter-spacing:-2px;word-spacing:0px;writing-mode:lr-tb;text-anchor:start;fill:#000000;stroke:#000000;stroke-width:0;stroke-miterlimit:4;stroke-dasharray:none"
           id="path29" />
        <path
           d="m 257.31024,220.93376 q -3.76836,0 -5.84524,2.78344 -2.07688,2.78345 -2.07688,7.83648 0,5.03162 2.07688,7.81506 2.07688,2.78345 5.84524,2.78345 3.78977,0 5.86665,-2.78345 2.07688,-2.78344 2.07688,-7.81506 0,-5.05303 -2.07688,-7.83648 -2.07688,-2.78344 -5.86665,-2.78344 z m 0,-5.97371 q 7.70801,0 12.07588,4.41069 4.36787,4.4107 4.36787,12.18294 0,7.75083 -4.36787,12.16152 -4.36787,4.4107 -12.07588,4.4107 -7.68659,0 -12.07588,-4.4107 -4.36787,-4.41069 -4.36787,-12.16152 0,-7.77224 4.36787,-12.18294 4.38929,-4.41069 12.07588,-4.41069 z"
           style="font-style:normal;font-variant:normal;font-weight:bold;font-stretch:normal;font-size:43.85000229px;line-height:125%;font-family:'DejaVu Sans';-inkscape-font-specification:'DejaVu Sans, Bold';text-align:start;letter-spacing:-2px;word-spacing:0px;writing-mode:lr-tb;text-anchor:start;fill:#000000;stroke:#000000;stroke-width:0;stroke-miterlimit:4;stroke-dasharray:none"
           id="path31" />
        <path
           d="m 272.95301,215.53815 h 8.28611 l 8.47881,23.59507 8.4574,-23.59507 h 8.28611 l -11.84036,31.96682 h -9.82771 z"
           style="font-style:normal;font-variant:normal;font-weight:bold;font-stretch:normal;font-size:43.85000229px;line-height:125%;font-family:'DejaVu Sans';-inkscape-font-specification:'DejaVu Sans, Bold';text-align:start;letter-spacing:-2px;word-spacing:0px;writing-mode:lr-tb;text-anchor:start;fill:#000000;stroke:#000000;stroke-width:0;stroke-miterlimit:4;stroke-dasharray:none"
           id="path33" />
        <path
           d="m 308.67943,215.53815 h 22.24617 v 6.23064 h -14.00288 v 5.9523 h 13.16784 v 6.23064 h -13.16784 v 7.3226 h 14.47392 v 6.23064 h -22.71721 z"
           style="font-style:normal;font-variant:normal;font-weight:bold;font-stretch:normal;font-size:43.85000229px;line-height:125%;font-family:'DejaVu Sans';-inkscape-font-specification:'DejaVu Sans, Bold';text-align:start;letter-spacing:-2px;word-spacing:0px;writing-mode:lr-tb;text-anchor:start;fill:#000000;stroke:#000000;stroke-width:0;stroke-miterlimit:4;stroke-dasharray:none"
           id="path35" />
      </g>
      <g
         transform="matrix(1.0317173,-0.37061216,0.37061216,1.0317173,-130.99069,-71.943348)"
         id="g4232-8-0">
        <g
           aria-label="APS"
           style="font-style:normal;font-variant:normal;font-weight:bold;font-stretch:semi-condensed;line-height:0%;font-family:'DejaVu Sans';-inkscape-font-specification:'DejaVu Sans, Bold Semi-Condensed';text-align:start;letter-spacing:0px;word-spacing:0px;writing-mode:lr-tb;text-anchor:start;fill:#800000;fill-opacity:1;stroke:none;stroke-width:1px;stroke-linecap:butt;stroke-linejoin:miter;stroke-opacity:1"
           id="text4197-2-8">
          <path
             d="m 231.93207,428.37238 h -11.64048 l -2.89059,5.31243 h -7.71475 l 16.48417,-29.15979 h 8.59365 l 5.15618,29.15979 h -7.14835 z m -8.80849,-5.2929 h 7.83194 l -1.75779,-11.23033 z"
             style="font-style:oblique;font-variant:normal;font-weight:bold;font-stretch:normal;font-size:39.9995079px;line-height:125%;font-family:'DejaVu Sans';-inkscape-font-specification:'DejaVu Sans Bold Oblique';text-align:start;letter-spacing:-2.73656821px;writing-mode:lr-tb;text-anchor:start;fill:#800000"
             id="path38" />
          <path
             d="m 247.00778,404.52502 h 12.48032 q 4.58978,0 7.16788,2.10935 2.59762,2.08981 2.59762,5.82024 0,2.28513 -0.85936,4.35541 -0.85937,2.05076 -2.46091,3.59371 -1.73826,1.66013 -4.14057,2.42184 -2.40232,0.74218 -6.03509,0.74218 h -4.96087 l -1.9531,10.11706 h -7.51944 z m 6.4843,5.44915 -1.60155,8.14443 h 4.16011 q 2.65622,0 4.06245,-1.24998 1.40623,-1.24999 1.40623,-3.63277 0,-1.58201 -1.01561,-2.42185 -0.99608,-0.83983 -2.89059,-0.83983 z"
             style="font-style:oblique;font-variant:normal;font-weight:bold;font-stretch:normal;font-size:39.9995079px;line-height:125%;font-family:'DejaVu Sans';-inkscape-font-specification:'DejaVu Sans Bold Oblique';text-align:start;letter-spacing:-2.73656821px;writing-mode:lr-tb;text-anchor:start;fill:#800000"
             id="path40" />
          <path
             d="m 293.64561,405.44297 -1.21092,6.1718 q -2.20701,-1.09373 -4.35542,-1.62107 -2.14841,-0.54687 -4.19917,-0.54687 -2.81246,0 -4.39447,0.8789 -1.56249,0.87889 -1.56249,2.44137 0,0.99608 0.68359,1.56248 0.70312,0.54687 2.87106,1.07421 l 3.0859,0.76171 q 3.86714,0.97655 5.66399,2.832 1.81638,1.83591 1.81638,4.76556 0,4.74604 -3.61323,7.6171 -3.59371,2.87105 -9.66785,2.87105 -2.832,0 -5.64446,-0.52733 -2.79294,-0.52734 -5.46869,-1.56248 l 1.1914,-6.34758 q 2.59762,1.50389 5.039,2.24606 2.4609,0.74218 4.84369,0.74218 2.57809,0 4.17963,-1.05467 1.62108,-1.05468 1.62108,-2.69528 0,-1.07421 -0.72265,-1.66014 -0.72265,-0.60546 -3.16402,-1.23045 l -3.06637,-0.76171 q -3.3984,-0.83983 -5.05853,-2.65622 -1.66014,-1.81638 -1.66014,-4.70697 0,-4.55073 3.47652,-7.28507 3.49605,-2.75387 9.39441,-2.75387 2.36326,0 4.8437,0.37109 2.49996,0.35156 5.07806,1.0742 z"
             style="font-style:oblique;font-variant:normal;font-weight:bold;font-stretch:normal;font-size:39.9995079px;line-height:125%;font-family:'DejaVu Sans';-inkscape-font-specification:'DejaVu Sans Bold Oblique';text-align:start;letter-spacing:-2.73656821px;writing-mode:lr-tb;text-anchor:start;fill:#800000"
             id="path42" />
        </g>
        <g
           style="font-style:normal;font-variant:normal;font-weight:bold;font-stretch:semi-condensed;font-size:40px;line-height:125%;font-family:'DejaVu Sans';-inkscape-font-specification:'DejaVu Sans, Bold Semi-Condensed';text-align:start;letter-spacing:0px;word-spacing:0px;writing-mode:lr-tb;text-anchor:start;fill:#800000;fill-opacity:1;stroke:none;stroke-width:1px;stroke-linecap:butt;stroke-linejoin:miter;stroke-opacity:1"
           id="text4209-0-3" />
      </g>
      <path
         id="rect4227"
         d="m 181.38672,256.03906 a 32.839447,32.362442 0 0 0 -2.6836,0.125 l -26.61328,46.85156 a 32.839447,32.362442 0 0 0 24.56641,17.3711 l 2.47461,-4.35742 c 0.14151,-1.22173 0.18178,-3.45916 0.31445,-3.47461 l -0.0547,-3.46289 0,-3.0293 c 1e-5,-0.5051 -0.0714,-1.01562 0,-1.51562 0.14483,-1.01381 0.37689,-2.01505 0.50391,-3.03126 0.0672,-0.53719 -0.13789,-2.11169 0,-2.52539 0.11905,-0.3571 0.41456,-0.64456 0.50586,-1.00976 0.0931,-0.3722 -0.14796,-2.22949 0,-2.52539 0.10648,-0.213 0.33751,-0.33561 0.50586,-0.50391 0,-0.3368 -0.10648,-0.69036 0,-1.00976 0.0753,-0.2259 0.39743,-0.29286 0.50391,-0.50586 0.15058,-0.3011 -0.15057,-0.70867 0,-1.00977 0.10648,-0.213 0.39938,-0.29286 0.50586,-0.50586 0.0753,-0.1506 -0.0532,-0.3442 0,-0.5039 0.11904,-0.3571 0.38486,-0.65462 0.5039,-1.01172 0.0532,-0.1597 -0.0753,-0.35331 0,-0.50391 0.10648,-0.213 0.44816,-0.27486 0.50586,-0.50586 0.1225,-0.49 -0.1225,-1.02562 0,-1.51562 0.0577,-0.231 0.39938,-0.29101 0.50586,-0.50391 0.0753,-0.1506 0,-0.33746 0,-0.50586 0.16835,-0.3367 0.29509,-0.69657 0.50391,-1.00976 0.13207,-0.1982 0.37574,-0.30776 0.50781,-0.50586 0.41764,-0.6265 0.59016,-1.39314 1.00781,-2.01954 0.13207,-0.1981 0.38336,-0.30165 0.50586,-0.50586 0.58106,-0.9684 0.8872,-2.08959 1.51367,-3.02929 0.30651,-0.4598 1.29181,-1.06803 1.51563,-1.51563 0.0753,-0.1506 -0.11904,-0.38676 0,-0.50586 0.0298,-0.03 0.0656,-0.0408 0.10547,-0.0508 0.11956,-0.017 0.27412,0.0508 0.40039,0.0508 l 2.52539,0 6.5664,0 c 0.14598,0 1.42857,-0.0312 2.2793,-0.0312 l -2.79297,4.93555 8.51367,-14.98828 a 32.839447,32.362442 0 0 0 -25.19726,-11.6543 z"
         style="opacity:1;fill:#b3b3b3;fill-opacity:1;fill-rule:nonzero;stroke:none;stroke-width:5.40500021;stroke-linecap:round;stroke-linejoin:miter;stroke-miterlimit:4;stroke-dasharray:none;stroke-dashoffset:0;stroke-opacity:1"
         inkscape:connector-curvature="0" />
      <path
         inkscape:transform-center-y="15.861113"
         inkscape:transform-center-x="18.676049"
         inkscape:connector-curvature="0"
         id="path4203"
         d="m 206.79359,264.75393 c -3.44345,-3.75542 -7.76179,-6.81234 -12.80317,-8.82073 -17.92497,-7.14097 -38.32064,1.63268 -45.4616,19.55764 -4.45264,11.17682 -2.71611,23.31371 3.56664,32.59967 l -4.0385,3.62642 -2.74167,-3.05322 -36.01801,32.3428 11.79008,13.12982 36.01801,-32.34279 -2.74166,-3.05321 4.03413,-3.6225 c 2.82067,2.39853 6.06467,4.39181 9.68994,5.83606 17.92495,7.14096 38.32207,-1.63399 45.46304,-19.55896 5.13258,-12.88356 2.04267,-27.04377 -6.75723,-36.641 z m -3.95173,3.65871 c 7.45014,8.10339 10.04095,20.04749 5.6854,30.9806 -6.0599,15.21131 -23.228,22.59828 -38.43929,16.53838 -15.2113,-6.05989 -22.59683,-23.22929 -16.53693,-38.44058 6.05991,-15.2113 23.22784,-22.59553 38.43914,-16.53562 4.27818,1.70434 7.9364,4.28633 10.85168,7.45722 z"
         style="color:#000000;font-style:normal;font-variant:normal;font-weight:normal;font-stretch:normal;font-size:medium;line-height:normal;font-family:sans-serif;text-indent:0;text-align:start;text-decoration:none;text-decoration-line:none;text-decoration-style:solid;text-decoration-color:#000000;letter-spacing:normal;word-spacing:normal;text-transform:none;direction:ltr;block-progression:tb;writing-mode:lr-tb;baseline-shift:baseline;text-anchor:start;white-space:normal;clip-rule:nonzero;display:inline;overflow:visible;visibility:visible;opacity:1;isolation:auto;mix-blend-mode:normal;color-interpolation:sRGB;color-interpolation-filters:linearRGB;solid-color:#000000;solid-opacity:1;fill:#800000;fill-opacity:1;fill-rule:nonzero;stroke:none;stroke-width:5.40500021;stroke-linecap:round;stroke-linejoin:miter;stroke-miterlimit:4;stroke-dasharray:none;stroke-dashoffset:0;stroke-opacity:1;color-rendering:auto;image-rendering:auto;shape-rendering:auto;text-rendering:auto;enable-background:accumulate" />
      <path
         style="fill:#b3b3b3;stroke-width:0.001;stroke-miterlimit:4;stroke-dasharray:none"
         d="m 195.99076,279.55498 c -0.041,0.003 -0.0782,0.008 -0.11272,0.0319 -0.13794,0.0966 0.0123,0.36299 -0.088,0.49819 -0.29823,0.40188 -1.37424,0.82954 -1.75602,1.22905 -0.78029,0.81649 -1.27667,1.8674 -2.01724,2.72004 -0.15613,0.1798 -0.4216,0.23814 -0.5861,0.41026 -0.52018,0.54426 -0.82335,1.2692 -1.34353,1.81356 -0.1645,0.17212 -0.42353,0.23769 -0.58804,0.40992 -0.26008,0.27212 -0.44743,0.60442 -0.67175,0.90672 -0.0292,0.16583 0.0124,0.36297 -0.0879,0.4982 -0.14187,0.19115 -0.48879,0.19083 -0.58576,0.40829 -0.20581,0.46124 -0.0577,1.03128 -0.26347,1.49252 -0.097,0.21745 -0.44423,0.21901 -0.5861,0.41026 -0.10034,0.13521 -0.007,0.3482 -0.0876,0.49623 -0.17931,0.33096 -0.49281,0.57772 -0.67212,0.90869 -0.0801,0.14802 0.0128,0.36101 -0.0876,0.49623 -0.14189,0.19124 -0.44421,0.21901 -0.5861,0.41025 -0.20062,0.27034 0.0251,0.724 -0.17552,0.99434 -0.14189,0.19124 -0.47076,0.20122 -0.58418,0.41059 -0.16039,0.29603 -0.11699,0.66275 -0.17554,0.99443 -0.19504,0.13647 -0.44387,0.21704 -0.58576,0.40828 -0.19714,0.26568 -0.28262,2.1366 -0.43901,2.48695 -0.1534,0.34377 -0.49438,0.57542 -0.67368,0.90639 -0.20771,0.38343 -0.27946,1.96961 -0.43903,2.48695 -0.30174,0.97864 -0.70434,1.92436 -1.02319,2.89755 -0.15724,0.47997 -0.17566,0.99511 -0.26347,1.49252 l -0.52661,2.98318 -0.54813,3.41967 c -0.13807,-0.008 -0.59407,2.37774 -0.95205,3.51696 l 28.09503,-34.07225 c -0.83777,-0.1479 -2.10622,-0.34033 -2.24998,-0.36571 l -6.46643,-1.1415 -2.48693,-0.43902 c -0.12436,-0.022 -0.26474,-0.11579 -0.38543,-0.11982 z"
         id="path4239"
         inkscape:connector-curvature="0"
         sodipodi:nodetypes="cccccccccccscccccccccccccsccccscsc" />
    </g>
  </g>
</svg>
