<?xml version="1.0" encoding="UTF-8" standalone="no"?>
<!-- Created with Inkscape (http://www.inkscape.org/) -->

<svg
   xmlns:dc="http://purl.org/dc/elements/1.1/"
   xmlns:cc="http://creativecommons.org/ns#"
   xmlns:rdf="http://www.w3.org/1999/02/22-rdf-syntax-ns#"
   xmlns:svg="http://www.w3.org/2000/svg"
   xmlns="http://www.w3.org/2000/svg"
   xmlns:sodipodi="http://sodipodi.sourceforge.net/DTD/sodipodi-0.dtd"
   xmlns:inkscape="http://www.inkscape.org/namespaces/inkscape"
   width="63.107731mm"
   height="50.143394mm"
   viewBox="0 0 223.61007 177.67344"
   id="svg2"
   version="1.1"
   inkscape:version="0.91 r"
   sodipodi:docname="Logo.svg">
  <defs
     id="defs4" />
  <sodipodi:namedview
     id="base"
     pagecolor="#ffffff"
     bordercolor="#666666"
     borderopacity="1.0"
     inkscape:pageopacity="0.0"
     inkscape:pageshadow="2"
     inkscape:zoom="1.8169852"
     inkscape:cx="118.73808"
     inkscape:cy="202.5333"
     inkscape:document-units="px"
     inkscape:current-layer="layer1"
     showgrid="false"
     inkscape:window-width="1920"
     inkscape:window-height="1146"
     inkscape:window-x="0"
     inkscape:window-y="26"
     inkscape:window-maximized="1"
     showguides="true"
     inkscape:guide-bbox="true"
     inkscape:snap-bbox="true"
     inkscape:snap-bbox-midpoints="true"
     inkscape:snap-global="false"
     fit-margin-top="0"
     fit-margin-left="0"
     fit-margin-right="0"
     fit-margin-bottom="0">
    <sodipodi:guide
       position="62.681186,167.99432"
       orientation="1,0"
       id="guide4205" />
    <sodipodi:guide
       position="176.78915,210.44087"
       orientation="1,0"
       id="guide4214" />
  </sodipodi:namedview>
  <metadata
     id="metadata7">
    <rdf:RDF>
      <cc:Work
         rdf:about="">
        <dc:format>image/svg+xml</dc:format>
        <dc:type
           rdf:resource="http://purl.org/dc/dcmitype/StillImage" />
        <dc:title></dc:title>
      </cc:Work>
    </rdf:RDF>
  </metadata>
  <g
     inkscape:label="Ebene 1"
     inkscape:groupmode="layer"
     id="layer1"
     transform="translate(-109.29728,-333.05096)">
    <text
       xml:space="preserve"
       style="font-style:normal;font-weight:normal;font-size:40px;line-height:125%;font-family:Sans;letter-spacing:0px;word-spacing:0px;fill:#000000;fill-opacity:1;stroke:none;stroke-width:1px;stroke-linecap:butt;stroke-linejoin:miter;stroke-opacity:1"
       x="230"
       y="458.43362"
       id="text4174"
       sodipodi:linespacing="125%"><tspan
         sodipodi:role="line"
         id="tspan4176"
         x="230"
         y="458.43362" /></text>
    <g
       id="g4245"
       transform="translate(0,156.58807)">
      <path
         id="path4136"
         d="m 228.10352,176.46289 -45.31446,80.72461 a 32.901688,31.444784 0 0 1 21.07813,8.16602 L 228.10352,222.17969 255.50977,271 l 27.4082,48.81836 -54.81445,0 -42.91797,0 a 32.901688,31.444784 0 0 1 -3.4375,0.20898 32.901688,31.444784 0 0 1 -3.63672,-0.20898 l -4.82227,0 0.4375,-0.7793 a 32.901688,31.444784 0 0 1 -18.77148,-12.27344 l -17.88672,31.85938 91.03516,0 91.03515,0 -45.51953,-81.08008 -45.51562,-81.08203 z"
         style="fill:#b3b3b3;stroke-width:0.001;stroke-miterlimit:4;stroke-dasharray:none"
         inkscape:connector-curvature="0" />
      <text
         inkscape:export-ydpi="90"
         inkscape:export-xdpi="90"
         sodipodi:linespacing="125%"
         id="text4142-8-9"
         y="247.50497"
         x="120.78509"
         style="font-style:normal;font-variant:normal;font-weight:bold;font-stretch:normal;font-size:43.85000229px;line-height:125%;font-family:Arial;-inkscape-font-specification:'Arial, Bold';text-align:start;letter-spacing:-2px;word-spacing:0px;writing-mode:lr-tb;text-anchor:start;fill:#000000;fill-opacity:1;stroke:#000000;stroke-width:0;stroke-linecap:butt;stroke-linejoin:miter;stroke-miterlimit:4;stroke-dasharray:none;stroke-opacity:1"
         xml:space="preserve"><tspan
           dx="0"
           style="font-style:normal;font-variant:normal;font-weight:bold;font-stretch:normal;font-size:43.85000229px;line-height:125%;font-family:'DejaVu Sans';-inkscape-font-specification:'DejaVu Sans, Bold';text-align:start;letter-spacing:-2px;word-spacing:0px;writing-mode:lr-tb;text-anchor:start;fill:#000000;stroke:#000000;stroke-width:0;stroke-miterlimit:4;stroke-dasharray:none"
           y="247.50497"
           x="120.78509"
           id="tspan4144-5-7"
           sodipodi:role="line">IMPROVE</tspan></text>
      <g
         transform="matrix(1.0317173,-0.37061216,0.37061216,1.0317173,-130.99069,-71.943348)"
         id="g4232-8-0">
        <text
           xml:space="preserve"
           style="font-style:normal;font-variant:normal;font-weight:bold;font-stretch:semi-condensed;font-size:40px;line-height:125%;font-family:'DejaVu Sans';-inkscape-font-specification:'DejaVu Sans, Bold Semi-Condensed';text-align:start;letter-spacing:0px;word-spacing:0px;writing-mode:lr-tb;text-anchor:start;fill:#800000;fill-opacity:1;stroke:none;stroke-width:1px;stroke-linecap:butt;stroke-linejoin:miter;stroke-opacity:1"
           x="212.28387"
           y="433.68481"
           id="text4197-2-8"
           sodipodi:linespacing="125%"><tspan
             sodipodi:role="line"
             id="tspan4199-3-6"
             x="212.28387"
             y="433.68481"
             style="font-style:oblique;font-variant:normal;font-weight:bold;font-stretch:normal;font-size:39.9995079px;line-height:125%;font-family:'DejaVu Sans';-inkscape-font-specification:'DejaVu Sans Bold Oblique';text-align:start;letter-spacing:-2.73656821px;writing-mode:lr-tb;text-anchor:start;fill:#800000">APS</tspan></text>
        <g
           style="font-style:normal;font-variant:normal;font-weight:bold;font-stretch:semi-condensed;font-size:40px;line-height:125%;font-family:'DejaVu Sans';-inkscape-font-specification:'DejaVu Sans, Bold Semi-Condensed';text-align:start;letter-spacing:0px;word-spacing:0px;writing-mode:lr-tb;text-anchor:start;fill:#800000;fill-opacity:1;stroke:none;stroke-width:1px;stroke-linecap:butt;stroke-linejoin:miter;stroke-opacity:1"
           id="text4209-0-3" />
      </g>
      <path
         id="rect4227"
         d="m 181.38672,256.03906 a 32.839447,32.362442 0 0 0 -2.6836,0.125 l -26.61328,46.85156 a 32.839447,32.362442 0 0 0 24.56641,17.3711 l 2.47461,-4.35742 c 0.14151,-1.22173 0.18178,-3.45916 0.31445,-3.47461 l -0.0547,-3.46289 0,-3.0293 c 1e-5,-0.5051 -0.0714,-1.01562 0,-1.51562 0.14483,-1.01381 0.37689,-2.01505 0.50391,-3.03126 0.0672,-0.53719 -0.13789,-2.11169 0,-2.52539 0.11905,-0.3571 0.41456,-0.64456 0.50586,-1.00976 0.0931,-0.3722 -0.14796,-2.22949 0,-2.52539 0.10648,-0.213 0.33751,-0.33561 0.50586,-0.50391 0,-0.3368 -0.10648,-0.69036 0,-1.00976 0.0753,-0.2259 0.39743,-0.29286 0.50391,-0.50586 0.15058,-0.3011 -0.15057,-0.70867 0,-1.00977 0.10648,-0.213 0.39938,-0.29286 0.50586,-0.50586 0.0753,-0.1506 -0.0532,-0.3442 0,-0.5039 0.11904,-0.3571 0.38486,-0.65462 0.5039,-1.01172 0.0532,-0.1597 -0.0753,-0.35331 0,-0.50391 0.10648,-0.213 0.44816,-0.27486 0.50586,-0.50586 0.1225,-0.49 -0.1225,-1.02562 0,-1.51562 0.0577,-0.231 0.39938,-0.29101 0.50586,-0.50391 0.0753,-0.1506 0,-0.33746 0,-0.50586 0.16835,-0.3367 0.29509,-0.69657 0.50391,-1.00976 0.13207,-0.1982 0.37574,-0.30776 0.50781,-0.50586 0.41764,-0.6265 0.59016,-1.39314 1.00781,-2.01954 0.13207,-0.1981 0.38336,-0.30165 0.50586,-0.50586 0.58106,-0.9684 0.8872,-2.08959 1.51367,-3.02929 0.30651,-0.4598 1.29181,-1.06803 1.51563,-1.51563 0.0753,-0.1506 -0.11904,-0.38676 0,-0.50586 0.0298,-0.03 0.0656,-0.0408 0.10547,-0.0508 0.11956,-0.017 0.27412,0.0508 0.40039,0.0508 l 2.52539,0 6.5664,0 c 0.14598,0 1.42857,-0.0312 2.2793,-0.0312 l -2.79297,4.93555 8.51367,-14.98828 a 32.839447,32.362442 0 0 0 -25.19726,-11.6543 z"
         style="opacity:1;fill:#b3b3b3;fill-opacity:1;fill-rule:nonzero;stroke:none;stroke-width:5.40500021;stroke-linecap:round;stroke-linejoin:miter;stroke-miterlimit:4;stroke-dasharray:none;stroke-dashoffset:0;stroke-opacity:1"
         inkscape:connector-curvature="0" />
      <path
         inkscape:transform-center-y="15.861113"
         inkscape:transform-center-x="18.676049"
         inkscape:connector-curvature="0"
         id="path4203"
         d="m 206.79359,264.75393 c -3.44345,-3.75542 -7.76179,-6.81234 -12.80317,-8.82073 -17.92497,-7.14097 -38.32064,1.63268 -45.4616,19.55764 -4.45264,11.17682 -2.71611,23.31371 3.56664,32.59967 l -4.0385,3.62642 -2.74167,-3.05322 -36.01801,32.3428 11.79008,13.12982 36.01801,-32.34279 -2.74166,-3.05321 4.03413,-3.6225 c 2.82067,2.39853 6.06467,4.39181 9.68994,5.83606 17.92495,7.14096 38.32207,-1.63399 45.46304,-19.55896 5.13258,-12.88356 2.04267,-27.04377 -6.75723,-36.641 z m -3.95173,3.65871 c 7.45014,8.10339 10.04095,20.04749 5.6854,30.9806 -6.0599,15.21131 -23.228,22.59828 -38.43929,16.53838 -15.2113,-6.05989 -22.59683,-23.22929 -16.53693,-38.44058 6.05991,-15.2113 23.22784,-22.59553 38.43914,-16.53562 4.27818,1.70434 7.9364,4.28633 10.85168,7.45722 z"
         style="color:#000000;font-style:normal;font-variant:normal;font-weight:normal;font-stretch:normal;font-size:medium;line-height:normal;font-family:sans-serif;text-indent:0;text-align:start;text-decoration:none;text-decoration-line:none;text-decoration-style:solid;text-decoration-color:#000000;letter-spacing:normal;word-spacing:normal;text-transform:none;direction:ltr;block-progression:tb;writing-mode:lr-tb;baseline-shift:baseline;text-anchor:start;white-space:normal;clip-rule:nonzero;display:inline;overflow:visible;visibility:visible;opacity:1;isolation:auto;mix-blend-mode:normal;color-interpolation:sRGB;color-interpolation-filters:linearRGB;solid-color:#000000;solid-opacity:1;fill:#800000;fill-opacity:1;fill-rule:nonzero;stroke:none;stroke-width:5.40500021;stroke-linecap:round;stroke-linejoin:miter;stroke-miterlimit:4;stroke-dasharray:none;stroke-dashoffset:0;stroke-opacity:1;color-rendering:auto;image-rendering:auto;shape-rendering:auto;text-rendering:auto;enable-background:accumulate" />
      <path
         style="fill:#b3b3b3;stroke-width:0.001;stroke-miterlimit:4;stroke-dasharray:none"
         d="m 195.99076,279.55498 c -0.041,0.003 -0.0782,0.008 -0.11272,0.0319 -0.13794,0.0966 0.0123,0.36299 -0.088,0.49819 -0.29823,0.40188 -1.37424,0.82954 -1.75602,1.22905 -0.78029,0.81649 -1.27667,1.8674 -2.01724,2.72004 -0.15613,0.1798 -0.4216,0.23814 -0.5861,0.41026 -0.52018,0.54426 -0.82335,1.2692 -1.34353,1.81356 -0.1645,0.17212 -0.42353,0.23769 -0.58804,0.40992 -0.26008,0.27212 -0.44743,0.60442 -0.67175,0.90672 -0.0292,0.16583 0.0124,0.36297 -0.0879,0.4982 -0.14187,0.19115 -0.48879,0.19083 -0.58576,0.40829 -0.20581,0.46124 -0.0577,1.03128 -0.26347,1.49252 -0.097,0.21745 -0.44423,0.21901 -0.5861,0.41026 -0.10034,0.13521 -0.007,0.3482 -0.0876,0.49623 -0.17931,0.33096 -0.49281,0.57772 -0.67212,0.90869 -0.0801,0.14802 0.0128,0.36101 -0.0876,0.49623 -0.14189,0.19124 -0.44421,0.21901 -0.5861,0.41025 -0.20062,0.27034 0.0251,0.724 -0.17552,0.99434 -0.14189,0.19124 -0.47076,0.20122 -0.58418,0.41059 -0.16039,0.29603 -0.11699,0.66275 -0.17554,0.99443 -0.19504,0.13647 -0.44387,0.21704 -0.58576,0.40828 -0.19714,0.26568 -0.28262,2.1366 -0.43901,2.48695 -0.1534,0.34377 -0.49438,0.57542 -0.67368,0.90639 -0.20771,0.38343 -0.27946,1.96961 -0.43903,2.48695 -0.30174,0.97864 -0.70434,1.92436 -1.02319,2.89755 -0.15724,0.47997 -0.17566,0.99511 -0.26347,1.49252 l -0.52661,2.98318 -0.54813,3.41967 c -0.13807,-0.008 -0.59407,2.37774 -0.95205,3.51696 l 28.09503,-34.07225 c -0.83777,-0.1479 -2.10622,-0.34033 -2.24998,-0.36571 l -6.46643,-1.1415 -2.48693,-0.43902 c -0.12436,-0.022 -0.26474,-0.11579 -0.38543,-0.11982 z"
         id="path4239"
         inkscape:connector-curvature="0"
         sodipodi:nodetypes="cccccccccccscccccccccccccsccccscsc" />
    </g>
  </g>
</svg>
