<?xml version="1.0" encoding="UTF-8" standalone="no"?>
<!-- Created with Inkscape (http://www.inkscape.org/) -->

<svg
   xmlns:dc="http://purl.org/dc/elements/1.1/"
   xmlns:cc="http://creativecommons.org/ns#"
   xmlns:rdf="http://www.w3.org/1999/02/22-rdf-syntax-ns#"
   xmlns:svg="http://www.w3.org/2000/svg"
   xmlns="http://www.w3.org/2000/svg"
   xmlns:xlink="http://www.w3.org/1999/xlink"
   xmlns:sodipodi="http://sodipodi.sourceforge.net/DTD/sodipodi-0.dtd"
   xmlns:inkscape="http://www.inkscape.org/namespaces/inkscape"
   width="129.62064mm"
   height="66.523811mm"
   viewBox="0 0 459.28572 235.71429"
   id="svg6563"
   version="1.1"
   inkscape:version="0.92.3 (2405546, 2018-03-11)"
   sodipodi:docname="rvt-logo.svg">
  <defs
     id="defs6565">
    <linearGradient
       inkscape:collect="always"
       id="linearGradient7651">
      <stop
         style="stop-color:#ffffff;stop-opacity:1;"
         offset="0"
         id="stop7653" />
      <stop
         style="stop-color:#ffffff;stop-opacity:0;"
         offset="1"
         id="stop7655" />
    </linearGradient>
    <linearGradient
       inkscape:collect="always"
       xlink:href="#linearGradient7651"
       id="linearGradient7673"
       gradientUnits="userSpaceOnUse"
       gradientTransform="matrix(1.0442177,0,0,1.0714286,15.714294,-162.05649)"
       x1="371.53561"
       y1="404.40982"
       x2="232.06374"
       y2="278.98126" />
    <linearGradient
       inkscape:collect="always"
       xlink:href="#linearGradient7651"
       id="linearGradient7677"
       gradientUnits="userSpaceOnUse"
       gradientTransform="matrix(1.0442177,0,0,1.0714286,-460.00004,-511.06658)"
       x1="371.53561"
       y1="404.40982"
       x2="232.06374"
       y2="278.98126" />
    <linearGradient
       inkscape:collect="always"
       xlink:href="#linearGradient7651"
       id="linearGradient7731"
       gradientUnits="userSpaceOnUse"
       gradientTransform="matrix(1.0442177,0,0,1.0714286,15.714294,-162.05649)"
       x1="371.53561"
       y1="404.40982"
       x2="232.06374"
       y2="278.98126" />
    <linearGradient
       inkscape:collect="always"
       xlink:href="#linearGradient7651"
       id="linearGradient7733"
       gradientUnits="userSpaceOnUse"
       gradientTransform="matrix(1.0442177,0,0,1.0714286,-460.00004,-511.06658)"
       x1="371.53561"
       y1="404.40982"
       x2="232.06374"
       y2="278.98126" />
  </defs>
  <sodipodi:namedview
     id="base"
     pagecolor="#ffffff"
     bordercolor="#666666"
     borderopacity="1.0"
     inkscape:pageopacity="0.0"
     inkscape:pageshadow="2"
     inkscape:zoom="1.4"
     inkscape:cx="311.05118"
     inkscape:cy="208.80625"
     inkscape:document-units="px"
     inkscape:current-layer="layer1"
     showgrid="false"
     fit-margin-top="0"
     fit-margin-left="0"
     fit-margin-right="0"
     fit-margin-bottom="0"
     inkscape:window-width="1920"
     inkscape:window-height="1016"
     inkscape:window-x="0"
     inkscape:window-y="27"
     inkscape:window-maximized="1" />
  <metadata
     id="metadata6568">
    <rdf:RDF>
      <cc:Work
         rdf:about="">
        <dc:format>image/svg+xml</dc:format>
        <dc:type
           rdf:resource="http://purl.org/dc/dcmitype/StillImage" />
        <dc:title></dc:title>
      </cc:Work>
    </rdf:RDF>
  </metadata>
  <g
     inkscape:label="Layer 1"
     inkscape:groupmode="layer"
     id="layer1"
     transform="translate(-21.428589,-332.36219)">
    <g
       id="g7679"
       transform="translate(57.142856,-71.428571)">
      <g
         id="g7659"
         style="fill:#808080"
         transform="translate(-7.1428559,74.285715)">
        <g
           id="g7661"
           transform="matrix(0.15475158,-0.00451327,0.00451327,0.15475158,35.202893,181.05927)"
           style="fill:#808080">
          <path
             id="path7663"
             d="m 1933.5231,-600.55259 c -2.125,6.625 -5.875,34.25 -5.5,40.375 l 0.375,7.375 -12.625,2.125 c -6.875,1.125 -16.75,3.25 -21.875,4.75 -5.25,1.5 -9.75,2.625 -10.125,2.625 -0.5,0 -1.75,-3 -3,-6.625 -1.125,-3.5 -6.5,-13.125 -12,-21.125 l -9.75,-14.75 -6.625,2.625 c -13.625,5.25 -25.875,11.625 -25.875,13.25 0,5.5 8,35.375 10.625,40 l 3.125,5.25 -10.25,6.375 c -5.75,3.375 -14.25,9.375 -19.125,13.125 l -8.75,6.875 -4.75,-5 c -2.625,-2.75 -11.5,-9.5 -19.625,-15 l -15,-10 -12.5,12.625 c -7.125,7.25 -12.125,13.25 -11.625,14.125 5.25,8.75 21.375,29.875 25.375,33.125 l 5,4 -6.625,9 c -3.75,5 -9.375,13.75 -12.625,19.375 -3.25,5.625 -6.25,10.25 -6.5,10.25 -0.375,0 -3.25,-1.375 -6.5,-2.875 -3.25,-1.625 -12.375,-4.25 -20.25,-5.75 -7.875,-1.5 -15.625,-3.125 -17.25,-3.5 -2.375,-0.625 -3.25,0.375 -6.375,7.25 -2,4.375 -5,12 -6.75,16.875 l -3.125,8.875 15.25,9.5 c 8.375,5.25 18.125,10.5 21.625,11.5 l 6.375,1.875 -2.875,12.25 c -1.5,6.625 -3.25,14.875 -3.625,18.375 -0.5,3.375 -1.125,8.25 -1.5,10.75 l -0.625,4.625 -7.75,-0.5 c -5.375,-0.375 -12.75,0.5 -24,2.875 l -16.25,3.5 0,18.125 0,18 15.625,2.875 c 8.875,1.625 19.375,2.75 24.375,2.5 l 8.625,-0.25 2.125,12.625 c 1.125,6.875 3.25,16.75 4.75,21.875 1.5,5.25 2.625,9.75 2.625,10.125 0,0.5 -3,1.75 -6.5,3 -3.625,1.125 -13.25,6.5 -21.25,12 l -14.75,9.75 2.625,6.625 c 5.25,13.625 11.625,25.875 13.25,25.875 5.5,0 35.375,-8 40,-10.625 l 5.25,-3.125 6.375,10.25 c 3.375,5.75 9.375,14.25 13.125,19.125 l 6.875,8.75 -5,4.75 c -2.75,2.625 -9.5,11.5 -15,19.625 l -10,15 12.625,12.5 c 7.25,7.125 13.25,12.125 14.125,11.625 8.75,-5.25 29.875,-21.375 33.125,-25.375 l 4,-5 9,6.625 c 5,3.75 13.75,9.375 19.375,12.625 5.625,3.25 10.25,6.25 10.25,6.5 0,0.375 -1.375,3.25 -2.875,6.5 -1.625,3.25 -4.25,12.375 -5.75,20.25 -1.5,7.875 -3.125,15.625 -3.5,17.25 -0.625,2.375 0.375,3.25 7.25,6.375 4.375,2 12,5 16.875,6.75 l 8.875,3.125 9.625,-15.375 c 5.375,-8.5 10.5,-18.25 11.5,-21.625 l 1.875,-6.125 12.125,2.75 c 6.625,1.625 15,3.25 18.375,3.625 3.5,0.5 8.375,1.125 10.875,1.5 l 4.625,0.75 -0.625,7.625 c -0.375,5.625 0.375,12.25 2.875,24 l 3.5,16.25 18.125,0 18,0 2.875,-15.625 c 1.625,-8.875 2.75,-19.375 2.5,-24.375 l -0.25,-8.625 12.625,-2.125 c 6.875,-1.125 16.75,-3.25 21.875,-4.75 5.25,-1.5 9.75,-2.625 10.125,-2.625 0.5,0 1.75,3 3,6.5 1.125,3.625 6.5,13.25 12,21.25 l 9.75,14.75 6.625,-2.625 c 13.625,-5.25 25.875,-11.625 25.875,-13.25 0,-5.5 -8,-35.375 -10.625,-40 l -3.125,-5.25 10.25,-6.375 c 5.75,-3.375 14.375,-9.375 19.125,-13.125 l 8.75,-6.875 4.75,5 c 2.625,2.75 11.5,9.5 19.625,15 l 15,10 12.5,-12.625 c 7.125,-7.25 12.125,-13.25 11.625,-14.125 -5.25,-8.75 -21.375,-29.875 -25.375,-33.125 l -5,-4 6.625,-9 c 3.75,-5 9.375,-13.75 12.625,-19.375 3.25,-5.625 6.25,-10.25 6.5,-10.25 0.375,0 3.25,1.375 6.5,2.875 3.25,1.625 12.375,4.25 20.25,5.75 7.875,1.5 15.625,3.125 17.25,3.5 2.375,0.625 3.25,-0.375 6.375,-7.25 2,-4.375 5,-12 6.75,-16.875 l 3.125,-8.875 -15.375,-9.625 c -8.5,-5.375 -18.25,-10.5 -21.625,-11.5 l -6.125,-1.875 2.75,-12.125 c 1.625,-6.625 3.25,-15 3.625,-18.375 0.5,-3.5 1.125,-8.375 1.5,-10.875 l 0.75,-4.625 7.625,0.625 c 5.625,0.375 12.25,-0.375 24,-2.875 l 16.25,-3.5 0,-18 0,-18.125 -16.25,-2.875 c -9.25,-1.75 -19.75,-2.75 -24.375,-2.625 l -8,0.375 -2.125,-12.625 c -1.125,-6.875 -3.25,-16.75 -4.75,-21.875 -1.5,-5.25 -2.625,-9.75 -2.625,-10.125 0,-0.5 3,-1.75 6.625,-3 3.5,-1.125 13.125,-6.5 21.125,-12 l 14.75,-9.75 -2.625,-6.625 c -5.25,-13.625 -11.625,-25.875 -13.25,-25.875 -5.5,0 -35.375,8 -40,10.625 l -5.25,3.125 -6.375,-10.25 c -3.375,-5.75 -9.375,-14.375 -13.125,-19.125 l -6.875,-8.75 5,-4.75 c 2.75,-2.625 9.5,-11.5 15,-19.625 l 10,-15 -12.625,-12.5 c -7.25,-7.125 -13.25,-12.125 -14.125,-11.625 -8.75,5.25 -29.875,21.375 -33.125,25.375 l -4,5 -9,-6.625 c -5,-3.75 -13.75,-9.375 -19.375,-12.625 -5.625,-3.25 -10.25,-6.25 -10.25,-6.5 0,-0.375 1.375,-3.25 2.875,-6.5 1.625,-3.25 4.25,-12.375 5.75,-20.25 1.5,-7.875 3.125,-15.625 3.5,-17.25 0.625,-2.375 -0.375,-3.25 -7.25,-6.375 -4.375,-2 -12,-5 -16.875,-6.75 l -8.875,-3.125 -9.625,15.375 c -5.375,8.5 -10.5,18.25 -11.5,21.625 l -1.875,6.125 -12.125,-2.75 c -6.625,-1.625 -14.875,-3.25 -18.375,-3.625 -3.375,-0.5 -8.25,-1.125 -10.75,-1.5 l -4.625,-0.625 0.5,-7.75 c 0.375,-5.375 -0.5,-12.75 -2.875,-24 l -3.5,-16.25 -17.875,-0.375 c -13.625,-0.25 -17.875,0 -18.25,1.25 z m 38.125,102.25 c 66.125,6.625 122.25,46 149.75,105.125 23.875,51.375 22.75,109.875 -2.875,160.375 -33.875,66.625 -104.875,106.25 -178.375,99.5 -8.5,-0.75 -19.125,-2.25 -23.625,-3.25 -68.125,-15.375 -120.75,-65.875 -138.625,-133 -7.125,-26.875 -7.75,-58.625 -1.875,-85 20.375,-90.75 104.75,-152.75 195.625,-143.75 z"
             inkscape:connector-curvature="0"
             style="fill:#808080;stroke:none" />
          <path
             id="path7665"
             d="m 1939.1481,-449.42759 c -32.125,3.375 -66.125,22 -87.5,48.125 -53.875,65.25 -34.375,164 40,203.875 84.25,45.125 187.75,-9.875 197.375,-105 7.375,-73.375 -46.625,-139.625 -119.875,-147.125 -14.25,-1.375 -15,-1.375 -30,0.125 z"
             inkscape:connector-curvature="0"
             style="fill:#808080;stroke:none" />
        </g>
        <path
           id="path7667"
           d="m 348.44092,47.092446 c -30.38531,1.02708 -57.4809,13.78975 -76.79283,36.08296 -26.00547,29.996634 -32.77123,71.667224 -17.68572,108.386414 15.01507,36.54744 49.54049,61.55775 88.91525,64.48886 32.87451,2.44723 65.26084,-10.9208 86.76363,-35.79869 26.01152,-30.07944 32.81866,-71.74694 17.6504,-108.4723 C 432.085,75.009826 397.39086,50.028586 357.78754,47.371886 c -3.39825,-0.21133 -7.63373,-0.3601 -9.34662,-0.27944 z m 12.86491,28.51873 c -0.0925,1.2421 -0.0396,3.32769 0.15464,4.63277 0.29961,2.68681 0.57406,2.91542 4.14529,3.59759 l 2.13458,0.4087 1.61422,-2.66924 c 0.85927,-1.47646 1.74937,-3.36696 1.97972,-4.2241 0.22725,-0.81574 0.56951,-1.49802 0.8179,-1.47953 1.07646,0.0801 9.30572,3.06581 9.28415,3.35563 -0.003,0.0414 -0.31619,0.89239 -0.72447,1.90282 -0.40522,0.96903 -0.88748,2.97315 -1.1196,4.41302 l -0.31831,2.59919 2.55735,1.43937 2.60181,1.40103 1.77322,-1.45006 c 0.93421,-0.80474 2.38554,-2.40366 3.13741,-3.55504 1.07243,-1.54386 1.60937,-2.04512 2.09082,-1.80111 1.28786,0.59546 7.56902,5.14307 7.54745,5.4329 -0.0152,0.20704 -0.57699,1.03951 -1.22134,1.86584 -0.64445,0.82631 -1.56976,2.63092 -2.08546,3.96641 l -0.97473,2.46706 2.18912,1.91155 2.18923,1.911554 1.97844,-0.85191 c 1.07517,-0.46119 2.83001,-1.662824 3.94526,-2.662264 l 2.0524,-1.84559 3.33094,3.911664 3.33401,3.87026 -2.12923,1.75661 c -1.15045,0.91356 -2.60167,2.51247 -3.21707,3.50749 l -1.09092,1.79228 1.52497,2.44497 1.56636,2.44805 2.58413,-0.59866 c 1.39717,-0.31233 3.31883,-0.9603 4.23146,-1.47522 0.91263,-0.51492 1.81909,-0.94705 2.02609,-0.93164 0.28987,0.0216 3.85733,6.90679 4.25557,8.2687 0.17001,0.51225 -0.4052,0.96903 -2.09082,1.80111 -1.25003,0.57307 -3.04624,1.77162 -3.98045,2.57636 l -1.69652,1.53904 1.00027,2.78061 1.04485,2.74229 2.61768,0.07 c 1.45846,-0.0163 3.51183,-0.19654 4.5302,-0.4538 1.05977,-0.25417 1.94774,-0.43787 1.98911,-0.43479 0.16563,0.0123 1.35678,5.26349 1.68413,7.57767 0.39777,2.48595 0.0709,2.96123 -1.79219,2.82254 -0.49684,-0.037 -2.28513,0.49601 -3.91702,1.16556 l -2.9647,1.23646 0.0881,2.17147 c 0.14584,3.63294 0.33139,3.93817 2.94422,4.63229 1.2619,0.38536 3.31669,0.74649 4.55878,0.83895 l 2.19434,0.16335 -0.36985,4.96843 -0.36986,4.96844 -2.19434,-0.16336 c -1.24209,-0.0925 -3.32771,-0.0396 -4.63276,0.15472 -2.6868,0.29959 -2.91549,0.574 -3.59763,4.14528 l -0.40864,2.13451 2.66915,1.61421 c 1.47648,0.85932 3.36697,1.74944 4.22411,1.97978 0.81578,0.22725 1.49806,0.56948 1.47956,0.81791 -0.0802,1.07649 -3.06575,9.30573 -3.35562,9.28416 -0.0413,-0.003 -0.89236,-0.31623 -1.9028,-0.72452 -0.96906,-0.4052 -2.97313,-0.88745 -4.41309,-1.11954 l -2.59919,-0.31839 -1.44244,2.59877 -1.39787,2.56045 1.64164,1.99569 c 0.91965,1.06766 2.52169,2.47754 3.5581,3.09592 1.47339,0.9007 1.85657,1.34556 1.6095,1.86841 -0.59857,1.32932 -5.14616,7.61044 -5.43603,7.58886 -0.20701,-0.0152 -1.03949,-0.57699 -1.86582,-1.22136 -0.82633,-0.64438 -2.63086,-1.56974 -3.96639,-2.08548 l -2.467,-0.97467 -1.91157,2.18914 -1.91156,2.18915 0.85185,1.97853 c 0.46128,1.07517 1.66285,2.82993 2.66227,3.94515 l 1.84876,2.01112 -3.87031,3.33396 -3.87339,3.37536 -1.75653,-2.12913 c -0.95497,-1.15356 -2.51255,-2.60177 -3.50758,-3.21706 l -1.83049,-1.13545 -2.44815,1.56633 -2.44801,1.56635 0.5987,2.58419 c 0.31228,1.39714 0.96021,3.31886 1.47521,4.23148 0.51488,0.91263 0.94702,1.81907 0.93162,2.02611 -0.0216,0.28982 -6.90685,3.8573 -8.26868,4.25552 -0.51228,0.17004 -0.96907,-0.4052 -1.8011,-2.09082 -0.57311,-1.25002 -1.77171,-3.04621 -2.57646,-3.98039 l -1.53896,-1.69664 -2.78058,1.00036 -2.74229,1.04486 -0.0701,2.61768 c 0.0164,1.45836 0.19657,3.5118 0.45386,4.53013 0.25418,1.05975 0.43783,1.94772 0.43475,1.98912 -0.0216,0.28984 -8.60219,2.02415 -9.67867,1.94402 -0.24837,-0.0186 -0.48584,-0.74393 -0.58674,-1.62572 -0.10398,-0.84041 -0.70435,-2.84185 -1.33555,-4.42926 l -1.20121,-2.87884 -2.17158,0.0882 c -3.63286,0.14589 -3.93813,0.33133 -4.63225,2.94419 -0.3853,1.26193 -0.74641,3.31669 -0.83887,4.55881 l -0.16336,2.19439 -4.9685,-0.36987 -4.96839,-0.36985 0.16336,-2.19439 c 0.0925,-1.24211 0.0396,-3.32769 -0.15475,-4.63277 -0.29961,-2.68683 -0.57394,-2.91541 -4.14528,-3.59761 l -2.13446,-0.40869 -1.42087,2.30895 c -0.76112,1.2756 -1.6512,3.16608 -2.02121,4.221 -0.32542,1.0166 -0.80426,1.85525 -1.01126,1.83984 -1.0351,-0.077 -9.26435,-3.06273 -9.24278,-3.35256 0.003,-0.0414 0.31629,-0.89239 0.7246,-1.90282 0.4052,-0.96902 0.88736,-2.97315 1.11948,-4.41302 l 0.31842,-2.59917 -2.55736,-1.43938 -2.60193,-1.40104 -1.77321,1.45006 c -0.9342,0.80474 -2.38553,2.40366 -3.13729,3.55506 -1.07255,1.54384 -1.60948,2.0451 -2.09081,1.80111 -1.28799,-0.59548 -7.56916,-5.1431 -7.54758,-5.43292 0.0152,-0.20703 0.57699,-1.0395 1.22144,-1.86583 0.64435,-0.82632 1.56966,-2.63093 2.08548,-3.96642 l 0.97463,-2.46706 -2.18914,-1.91154 -2.1922,-1.87015 -1.9341,0.81358 c -1.07517,0.4612 -2.87126,1.65974 -3.9865,2.6592 l -2.05253,1.84558 -3.33092,-3.91167 -3.33391,-3.87025 2.12911,-1.75662 c 1.15045,-0.91356 2.60178,-2.51247 3.21707,-3.5075 l 1.09093,-1.79227 -1.52487,-2.44496 -1.56636,-2.44805 -2.58425,0.59866 c -1.39705,0.31232 -3.3188,0.96029 -4.23143,1.47521 -0.91264,0.51493 -1.81911,0.94705 -2.02611,0.93165 -0.28985,-0.0216 -3.85733,-6.90679 -4.25249,-8.3101 -0.16693,-0.55367 0.27801,-0.93687 1.86841,-1.6095 1.11655,-0.45812 2.90969,-1.61525 3.97737,-2.53498 l 1.91904,-1.73062 -1.00347,-2.73922 -1.04176,-2.78368 -2.61768,-0.07 c -1.45834,0.0164 -3.51182,0.19654 -4.5301,0.4538 -1.05975,0.25418 -1.94772,0.43788 -1.9891,0.43479 -0.28987,-0.0216 -2.02426,-8.60218 -1.9472,-9.63728 0.0152,-0.20703 0.91572,-0.55632 1.9693,-0.7277 1.09806,-0.20968 3.09949,-0.8101 4.47377,-1.3739 l 2.49391,-1.06336 -0.0882,-2.17148 c -0.14584,-3.63292 -0.33127,-3.93815 -2.9441,-4.63226 -1.26202,-0.38537 -3.31669,-0.74649 -4.55891,-0.83896 l -2.19432,-0.16335 0.36985,-4.96844 0.36986,-4.96842 2.19433,0.16335 c 1.24221,0.0925 3.32771,0.0395 4.63287,-0.15472 2.68681,-0.29959 2.91538,-0.574 3.59753,-4.1453 l 0.40875,-2.13449 -2.30898,-1.42086 c -1.27564,-0.76109 -3.16614,-1.65121 -4.22103,-2.02118 -1.01661,-0.32547 -1.85527,-0.80422 -1.83985,-1.01125 0.077,-1.03509 3.06279,-9.26433 3.35265,-9.24275 0.0413,0.003 0.89237,0.31622 1.90281,0.72451 0.96896,0.4052 2.97312,0.88746 4.41297,1.11953 l 2.59919,0.31839 1.44244,-2.59876 1.39798,-2.56044 -1.64164,-1.9957 c -0.91975,-1.06766 -2.52179,-2.47754 -3.5582,-3.09592 -1.47329,-0.90071 -1.85658,-1.34556 -1.60951,-1.8684 0.59858,-1.32934 5.14617,-7.61046 5.43603,-7.58888 0.207,0.0154 1.03949,0.57699 1.86582,1.22136 0.82634,0.64437 2.63098,1.56973 3.96639,2.08547 l 2.46713,0.97469 1.91155,-2.18915 1.91156,-2.18914 -0.85193,-1.97855 c -0.4612,-1.07515 -1.66288,-2.829934 -2.6623,-3.945154 l -1.84864,-2.0111 3.87021,-3.33397 3.87338,-3.37536 1.75664,2.12915 c 0.95497,1.15354 2.59529,2.60791 3.59022,3.2232 l 1.78922,1.13239 2.40666,-1.56943 2.44803,-1.56636 -0.55723,-2.58109 c -0.35377,-1.40023 -1.00169,-3.32195 -1.51659,-4.23456 -0.51499,-0.91263 -0.94714,-1.81909 -0.93172,-2.02611 0.0216,-0.28984 6.90684,-3.85732 8.31017,-4.25244 0.55365,-0.16696 0.93682,0.27791 1.60951,1.8684 0.45811,1.11655 1.61522,2.90965 2.53496,3.97731 l 1.73056,1.91904 2.73931,-1.00343 2.78367,-1.04178 0.07,-2.61768 c -0.0164,-1.45836 -0.19647,-3.51179 -0.45374,-4.53014 -0.2542,-1.05974 -0.43796,-1.94771 -0.43488,-1.98912 0.0216,-0.28982 8.6022,-2.02415 9.67868,-1.94401 0.24848,0.0185 0.48584,0.74393 0.58982,1.58432 0.1009,0.8818 0.70138,2.88326 1.33257,4.47067 l 1.20122,2.87883 2.17146,-0.0882 c 3.63298,-0.14587 3.93814,-0.33133 4.63226,-2.94417 0.38541,-1.26193 0.74652,-3.3167 0.83898,-4.55881 l 0.16336,-2.19439 4.9684,0.36986 4.9685,0.36986 -0.16336,2.19439 z"
           inkscape:connector-curvature="0"
           style="fill:#808080;stroke:none" />
        <path
           style="fill:#808080;stroke:none"
           inkscape:connector-curvature="0"
           d="m 347.59302,164.21795 c -1.09786,1.26368 -2.39572,3.19928 -2.27889,3.39895 0.039,0.0665 0.75876,0.7532 1.58514,1.49791 1.38788,1.28438 1.62678,1.44499 3.28775,2.28174 l 1.79139,0.91088 -0.26328,0.73685 c -0.34438,0.94438 -0.71215,2.41749 -0.8718,3.40563 l -0.12421,0.77675 -1.94156,-0.17848 c -1.81549,-0.16078 -2.06996,-0.15068 -3.948,0.22451 -1.09675,0.2023 -2.0565,0.41629 -2.12185,0.45294 -0.18532,0.10362 0.0569,2.69349 0.40851,4.30834 0.18447,0.80994 0.35859,1.47838 0.38247,1.49447 0.0282,-10e-4 0.99176,-0.0109 2.14019,-0.0507 1.93135,-0.0368 2.19464,-0.0813 3.71852,-0.56726 0.88606,-0.29051 1.71765,-0.55045 1.82427,-0.56602 0.16106,-0.0461 0.384,0.28564 1.48735,2.17145 1.10324,1.88591 1.28265,2.24203 1.16056,2.35466 -0.0671,0.0827 -0.7175,0.65273 -1.42188,1.25381 -1.1994,1.04068 -1.37183,1.24046 -2.3816,2.8525 -0.61625,0.94948 -1.11245,1.758 -1.12775,1.7813 0.002,0.0284 0.42489,0.45419 0.9716,0.94313 1.24484,1.11416 3.56682,2.75877 3.75201,2.65496 0.0764,-0.0426 0.73957,-0.7387 1.45761,-1.53894 1.23946,-1.34307 1.39224,-1.57628 2.17392,-3.20749 l 0.85146,-1.75902 0.74726,0.28823 c 0.95143,0.36524 2.44637,0.79411 3.44184,0.98736 l 0.78247,0.1506 -0.104,1.97344 c -0.10355,1.82585 -0.0827,2.10879 0.34663,3.93058 0.23808,1.07453 0.47865,2.02979 0.5176,2.09637 0.12357,0.21063 2.6422,0.0656 4.31559,-0.23906 0.80516,-0.15681 1.46896,-0.30792 1.48426,-0.33121 -0.002,-0.0283 -0.0448,-0.99139 -0.12383,-2.14035 -0.10274,-1.93118 -0.15629,-2.19579 -0.69521,-3.73515 -0.32125,-0.89531 -0.61007,-1.73515 -0.62932,-1.84223 -0.0517,-0.16253 0.27309,-0.37397 2.12485,-1.41216 1.8518,-1.03818 2.20247,-1.2053 2.31953,-1.07939 0.0847,0.0703 0.6784,0.73931 1.3047,1.46361 1.08357,1.23401 1.28962,1.41313 2.93917,2.47717 0.97231,0.64819 1.79928,1.17162 1.82317,1.18769 0.0282,-0.001 0.49737,-0.48507 1.043,-1.08549 1.11548,-1.25848 2.51786,-3.31193 2.39457,-3.5227 -0.039,-0.0666 -0.75878,-0.75321 -1.58516,-1.49791 -1.38789,-1.2844 -1.62677,-1.445 -3.28775,-2.28175 l -1.79139,-0.91087 0.26326,-0.73685 c 0.34439,-0.94439 0.71217,-2.41749 0.87183,-3.40564 l 0.1242,-0.77675 1.95245,0.17236 c 1.82197,0.17188 2.08735,0.15569 3.9327,-0.20117 1.09025,-0.21348 2.03911,-0.4213 2.10447,-0.45793 0.20722,-0.1156 -0.0244,-2.63803 -0.38674,-4.32057 -0.18447,-0.80993 -0.35857,-1.47839 -0.38244,-1.49447 -0.0282,0.001 -0.99177,0.0109 -2.12931,0.0446 -1.93135,0.0368 -2.18374,0.0752 -3.71853,0.56727 -0.89694,0.29659 -1.72854,0.55653 -1.83516,0.57211 -0.16106,0.0461 -0.384,-0.28563 -1.48735,-2.17146 -1.10324,-1.8859 -1.28274,-2.24197 -1.16055,-2.35466 0.0671,-0.0827 0.71752,-0.65273 1.42188,-1.25381 1.1994,-1.04067 1.37183,-1.24045 2.3816,-2.8525 0.61625,-0.94947 1.11245,-1.75799 1.12774,-1.7813 -0.002,-0.0283 -0.50292,-0.51358 -1.12316,-1.07924 -1.29893,-1.1576 -3.40411,-2.62901 -3.61109,-2.51298 -0.0652,0.037 -0.72876,0.73251 -1.44673,1.53282 -1.23947,1.34305 -1.39218,1.57636 -2.17392,3.2075 l -0.85146,1.75902 -0.74725,-0.28822 c -0.95793,-0.37637 -2.44638,-0.79412 -3.44184,-0.98737 l -0.78248,-0.15062 0.10609,-1.94513 c 0.11004,-1.81476 0.0848,-2.0805 -0.33573,-3.93669 -0.251,-1.09672 -0.49166,-2.05199 -0.53059,-2.11854 -0.12357,-0.21063 -2.6422,-0.0656 -4.31559,0.23905 -0.80518,0.1567 -1.46896,0.30792 -1.48425,0.33121 0.002,0.0283 0.0447,0.99139 0.12383,2.14034 0.10273,1.93118 0.15628,2.19579 0.69521,3.73516 0.32125,0.89531 0.61008,1.73514 0.62932,1.84222 0.0517,0.16254 -0.27309,0.37397 -2.12485,1.41216 -2.1024,1.17859 -2.19601,1.21636 -2.37379,1.03613 -0.0932,-0.10986 -0.65661,-0.7515 -1.25693,-1.43144 -0.97951,-1.13031 -1.2398,-1.35266 -2.90882,-2.45 -1.01356,-0.66925 -1.8797,-1.18545 -1.94507,-1.14881 -0.0546,0.0306 -0.52608,0.55977 -1.06054,1.15436 z m 14.60055,8.78583 c 1.97652,-0.57772 4.44446,0.27797 5.79182,2.0123 2.73802,3.51801 0.60866,8.48309 -3.7767,8.77597 -3.7023,0.24882 -6.71616,-3.39448 -5.80239,-7.00041 0.49523,-1.89813 1.79983,-3.20405 3.78727,-3.78786 z"
           id="path7669" />
      </g>
      <rect
         style="fill:url(#linearGradient7673);fill-opacity:1;stroke:none;stroke-opacity:1"
         id="rect7671"
         width="219.28572"
         height="225"
         x="235.00002"
         y="115.21933"
         ry="0" />
    </g>
    <g
       id="g7688"
       transform="translate(62.857143,-71.428572)">
      <g
         style="fill:#808080"
         transform="translate(-257.14286,2.1428571)"
         id="g7592">
        <path
           style="fill:#808080;stroke:none"
           inkscape:connector-curvature="0"
           d="m 385.82384,78.088093 c -2.47389,1.301592 -5.6721,3.512661 -5.61585,3.882781 0.0188,0.12337 0.70236,1.576228 1.51377,3.177953 1.34221,2.741212 1.61033,3.121206 3.65085,5.335557 l 2.19514,2.401217 -0.862,0.972479 c -1.11548,1.242409 -2.59453,3.276368 -3.45258,4.690033 l -0.67249,1.111971 -2.88014,-1.371488 c -2.69689,-1.273119 -3.09513,-1.401932 -6.22039,-1.894686 -1.81471,-0.313256 -3.42562,-0.53126 -3.54899,-0.51251 -0.34956,0.05312 -1.58094,4.13211 -2.03963,6.78938 -0.2175,1.33735 -0.36344,2.45344 -0.33663,2.49145 0.0443,0.0143 1.53442,0.54519 3.32807,1.13513 2.99775,1.03805 3.43087,1.11949 6.07926,1.24295 1.54479,0.0597 2.98675,0.13513 3.16063,0.17182 0.27669,0.0211 0.41468,0.65223 0.94591,4.1478 0.53122,3.49558 0.58696,4.13925 0.32903,4.24156 -0.15513,0.0867 -1.5096,0.58705 -2.9669,1.10304 -2.49214,0.90465 -2.88151,1.11108 -5.43553,2.99284 -1.53742,1.09617 -2.8026,2.04577 -2.8406,2.07259 -0.0143,0.0443 0.37306,0.93205 0.91192,1.98615 1.2274,2.40103 3.78521,6.21973 4.13477,6.16661 0.14394,-0.0219 1.59679,-0.70548 3.19851,-1.51689 2.74122,-1.34222 3.12121,-1.61034 5.33556,-3.65086 l 2.40122,-2.19514 0.97248,0.862 c 1.23928,1.09492 3.27637,2.59453 4.69002,3.45258 l 1.11198,0.67249 -1.38268,2.94495 c -1.29055,2.72058 -1.43367,3.16306 -1.90093,6.17926 -0.29894,1.77047 -0.52007,3.36081 -0.50132,3.48419 0.0594,0.39068 4.02929,1.59656 6.79562,2.08074 1.33736,0.21751 2.45346,0.36345 2.49146,0.33664 0.0143,-0.0443 0.54518,-1.53441 1.13511,-3.32807 1.03807,-2.99775 1.11951,-3.43088 1.24295,-6.07925 0.0598,-1.54479 0.13515,-2.98677 0.17183,-3.16065 0.0211,-0.27667 0.65224,-0.41467 4.14781,-0.9459 3.49556,-0.53122 4.13924,-0.58696 4.24156,-0.32904 0.0867,0.15513 0.58703,1.50962 1.10302,2.96691 0.90466,2.49214 1.1111,2.88151 2.99286,5.43553 1.09616,1.53742 2.04577,2.8026 2.07258,2.8406 0.0443,0.0143 1.06661,-0.45661 2.27896,-1.0616 2.49759,-1.28415 5.93004,-3.61497 5.87067,-4.00565 -0.0188,-0.12338 -0.70235,-1.57623 -1.51377,-3.17795 -1.34221,-2.74122 -1.61033,-3.1212 -3.65084,-5.33556 l -2.19514,-2.40122 0.86198,-0.97248 c 1.1155,-1.24241 2.59454,-3.27637 3.4526,-4.69002 l 0.67249,-1.11198 2.9007,1.36836 c 2.70001,1.29368 3.1188,1.41937 6.18238,1.92151 1.81159,0.29269 3.40194,0.51381 3.52531,0.49507 0.39069,-0.0594 1.59655,-4.02931 2.08075,-6.79563 0.2175,-1.33736 0.36344,-2.45345 0.33663,-2.49146 -0.0443,-0.0143 -1.53441,-0.54519 -3.3075,-1.13825 -2.99776,-1.03805 -3.41031,-1.12262 -6.07926,-1.24294 -1.56535,-0.0566 -3.00733,-0.13202 -3.1812,-0.1687 -0.27669,-0.0211 -0.41468,-0.65224 -0.9459,-4.14782 -0.53122,-3.49556 -0.58697,-4.13923 -0.32904,-4.24155 0.15513,-0.0867 1.50961,-0.58704 2.96689,-1.10302 2.49216,-0.904664 2.88153,-1.111097 5.43555,-2.992859 1.53742,-1.096163 2.80259,-2.045768 2.84059,-2.072582 0.0143,-0.04425 -0.45662,-1.066607 -1.0616,-2.278963 -1.28416,-2.497592 -3.61496,-5.930047 -4.00565,-5.870675 -0.12337,0.01875 -1.57622,0.702355 -3.17795,1.513771 -2.74122,1.342218 -3.12121,1.610332 -5.33556,3.650849 l -2.40121,2.195138 -0.97248,-0.861984 c -1.24241,-1.115494 -3.27637,-2.594541 -4.69004,-3.452593 l -1.11197,-0.672494 1.36837,-2.900693 c 1.29367,-2.70001 1.41936,-3.118818 1.92149,-6.182389 0.29269,-1.811589 0.51382,-3.401941 0.49507,-3.525311 -0.0594,-0.390679 -4.02929,-1.596555 -6.79562,-2.080748 -1.33735,-0.217503 -2.45346,-0.363441 -2.49145,-0.336634 -0.0143,0.04422 -0.54519,1.534408 -1.13513,3.328062 -1.03805,2.997756 -1.11949,3.430873 -1.24294,6.079269 -0.0598,1.544783 -0.13514,2.986759 -0.17182,3.160633 -0.0211,0.276683 -0.65225,0.414678 -4.14782,0.945901 -3.96849,0.603095 -4.13612,0.60755 -4.2983,0.232474 -0.0755,-0.219933 -0.54592,-1.515851 -1.04941,-2.890896 -0.8086,-2.275338 -1.07177,-2.76127 -2.96292,-5.376981 -1.14666,-1.592856 -2.16108,-2.869214 -2.28444,-2.850467 -0.10282,0.01563 -1.15692,0.554486 -2.34873,1.156345 z m 17.04748,21.643968 c 3.40245,0.24027 6.67388,2.940739 7.6749,6.343869 2.03825,6.90595 -4.31742,13.25732 -11.25386,11.219 -5.85701,-1.7185 -8.2425,-8.97139 -4.60122,-13.94253 1.93867,-2.6087 4.75718,-3.857479 8.18018,-3.620339 z"
           id="path7555" />
        <path
           style="fill:#808080;stroke:none"
           inkscape:connector-curvature="0"
           d="m 387.01234,13.521015 c -30.38531,1.027076 -57.4809,13.789754 -76.79283,36.082961 -26.00547,29.996628 -32.77123,71.667224 -17.68572,108.386414 15.01507,36.54744 49.54049,61.55775 88.91525,64.48886 32.87451,2.44723 65.26084,-10.9208 86.76363,-35.79869 26.01152,-30.07944 32.81866,-71.74694 17.6504,-108.472308 -15.20665,-36.769861 -49.90079,-61.751094 -89.50411,-64.407801 -3.39825,-0.211329 -7.63373,-0.360098 -9.34662,-0.279436 z m 12.86491,28.518726 c -0.0925,1.242102 -0.0396,3.327691 0.15464,4.632777 0.29961,2.686812 0.57406,2.915414 4.14529,3.597584 l 2.13458,0.408705 1.61422,-2.669246 c 0.85927,-1.47646 1.74937,-3.366956 1.97972,-4.224097 0.22725,-0.815738 0.56951,-1.498021 0.8179,-1.479531 1.07646,0.08013 9.30572,3.065811 9.28415,3.355636 -0.003,0.0414 -0.31619,0.892384 -0.72447,1.902816 -0.40522,0.969026 -0.88748,2.973151 -1.1196,4.41302 l -0.31831,2.599188 2.55735,1.439368 2.60181,1.401036 1.77322,-1.450059 c 0.93421,-0.804745 2.38554,-2.403658 3.13741,-3.55504 1.07243,-1.54386 1.60937,-2.045123 2.09082,-1.801113 1.28786,0.595462 7.56902,5.143073 7.54745,5.432905 -0.0152,0.207032 -0.57699,1.039506 -1.22134,1.865838 -0.64445,0.826307 -1.56976,2.630913 -2.08546,3.966412 l -0.97473,2.467056 2.18912,1.911548 2.18923,1.911556 1.97844,-0.851913 c 1.07517,-0.461188 2.83001,-1.662818 3.94526,-2.662257 l 2.0524,-1.845598 3.33094,3.91166 3.33401,3.870264 -2.12923,1.756611 c -1.15045,0.913559 -2.60167,2.512471 -3.21707,3.507484 l -1.09092,1.792287 1.52497,2.444968 1.56636,2.448048 2.58413,-0.598663 c 1.39717,-0.312325 3.31883,-0.960295 4.23146,-1.475217 0.91263,-0.514922 1.81909,-0.947051 2.02609,-0.931642 0.28987,0.02158 3.85733,6.906795 4.25557,8.268703 0.17001,0.512255 -0.4052,0.969026 -2.09082,1.801113 -1.25003,0.573065 -3.04624,1.771614 -3.98045,2.57636 l -1.69652,1.539035 1.00027,2.78061 1.04485,2.74229 2.61768,0.07 c 1.45846,-0.0163 3.51183,-0.19654 4.5302,-0.4538 1.05977,-0.25417 1.94774,-0.43787 1.98911,-0.43479 0.16563,0.0123 1.35678,5.263497 1.68413,7.577677 0.39777,2.48595 0.0709,2.96123 -1.79219,2.82254 -0.49684,-0.037 -2.28513,0.49601 -3.91702,1.16556 l -2.9647,1.23646 0.0881,2.17147 c 0.14584,3.63294 0.33139,3.93817 2.94422,4.63229 1.2619,0.38536 3.31669,0.74649 4.55878,0.83895 l 2.19434,0.16335 -0.36985,4.96843 -0.36986,4.96844 -2.19434,-0.16336 c -1.24209,-0.0925 -3.32771,-0.0396 -4.63276,0.15472 -2.6868,0.29959 -2.91549,0.574 -3.59763,4.14528 l -0.40864,2.13451 2.66915,1.61421 c 1.47648,0.85932 3.36697,1.74944 4.22411,1.97978 0.81578,0.22725 1.49806,0.56948 1.47956,0.81791 -0.0802,1.07649 -3.06575,9.30573 -3.35562,9.28416 -0.0413,-0.003 -0.89236,-0.31623 -1.9028,-0.72452 -0.96906,-0.4052 -2.97313,-0.88745 -4.41309,-1.11954 l -2.59919,-0.31839 -1.44244,2.59877 -1.39787,2.56045 1.64164,1.99569 c 0.91965,1.06766 2.52169,2.47754 3.5581,3.09592 1.47339,0.9007 1.85657,1.34556 1.6095,1.86841 -0.59857,1.32932 -5.14616,7.61044 -5.43603,7.58886 -0.20701,-0.0152 -1.03949,-0.57699 -1.86582,-1.22136 -0.82633,-0.64438 -2.63086,-1.56974 -3.96639,-2.08548 l -2.467,-0.97467 -1.91157,2.18914 -1.91156,2.18915 0.85185,1.97853 c 0.46128,1.07517 1.66285,2.82993 2.66227,3.94515 l 1.84876,2.01112 -3.87031,3.33396 -3.87339,3.37536 -1.75653,-2.12913 c -0.95497,-1.15356 -2.51255,-2.60177 -3.50758,-3.21706 l -1.83049,-1.13545 -2.44815,1.56633 -2.44801,1.56635 0.5987,2.58419 c 0.31228,1.39714 0.96021,3.31886 1.47521,4.23148 0.51488,0.91263 0.94702,1.81907 0.93162,2.02611 -0.0216,0.28982 -6.90685,3.8573 -8.26868,4.25552 -0.51228,0.17004 -0.96907,-0.4052 -1.8011,-2.09082 -0.57311,-1.25002 -1.77171,-3.04621 -2.57646,-3.98039 l -1.53896,-1.69664 -2.78058,1.00036 -2.74229,1.04486 -0.0701,2.61768 c 0.0164,1.45836 0.19657,3.5118 0.45386,4.53013 0.25418,1.05975 0.43783,1.94772 0.43475,1.98912 -0.0216,0.28984 -8.60219,2.02415 -9.67867,1.94402 -0.24837,-0.0186 -0.48584,-0.74393 -0.58674,-1.62572 -0.10398,-0.84041 -0.70435,-2.84185 -1.33555,-4.42926 l -1.20121,-2.87884 -2.17158,0.0882 c -3.63286,0.14589 -3.93813,0.33133 -4.63225,2.94419 -0.3853,1.26193 -0.74641,3.31669 -0.83887,4.55881 l -0.16336,2.19439 -4.9685,-0.36987 -4.96839,-0.36985 0.16336,-2.19439 c 0.0925,-1.24211 0.0396,-3.32769 -0.15475,-4.63277 -0.29961,-2.68683 -0.57394,-2.91541 -4.14528,-3.59761 l -2.13446,-0.40869 -1.42087,2.30895 c -0.76112,1.2756 -1.6512,3.16608 -2.02121,4.221 -0.32542,1.0166 -0.80426,1.85525 -1.01126,1.83984 -1.0351,-0.077 -9.26435,-3.06273 -9.24278,-3.35256 0.003,-0.0414 0.31629,-0.89239 0.7246,-1.90282 0.4052,-0.96902 0.88736,-2.97315 1.11948,-4.41302 l 0.31842,-2.59917 -2.55736,-1.43938 -2.60193,-1.40104 -1.77321,1.45006 c -0.9342,0.80474 -2.38553,2.40366 -3.13729,3.55506 -1.07255,1.54384 -1.60948,2.0451 -2.09081,1.80111 -1.28799,-0.59548 -7.56916,-5.1431 -7.54758,-5.43292 0.0152,-0.20703 0.57699,-1.0395 1.22144,-1.86583 0.64435,-0.82632 1.56966,-2.63093 2.08548,-3.96642 l 0.97463,-2.46706 -2.18914,-1.91154 -2.1922,-1.87015 -1.9341,0.81358 c -1.07517,0.4612 -2.87126,1.65974 -3.9865,2.6592 l -2.05253,1.84558 -3.33092,-3.91167 -3.33391,-3.87025 2.12911,-1.75662 c 1.15045,-0.91356 2.60178,-2.51247 3.21707,-3.5075 l 1.09093,-1.79227 -1.52487,-2.44496 -1.56636,-2.44805 -2.58425,0.59866 c -1.39705,0.31232 -3.3188,0.96029 -4.23143,1.47521 -0.91264,0.51493 -1.81911,0.94705 -2.02611,0.93165 -0.28985,-0.0216 -3.85733,-6.90679 -4.25249,-8.3101 -0.16693,-0.55367 0.27801,-0.93687 1.86841,-1.6095 1.11655,-0.45812 2.90969,-1.61525 3.97737,-2.53498 l 1.91904,-1.73062 -1.00347,-2.73922 -1.04176,-2.78368 -2.61768,-0.07 c -1.45834,0.0164 -3.51182,0.19654 -4.5301,0.4538 -1.05975,0.25418 -1.94772,0.43788 -1.9891,0.43479 -0.28987,-0.0216 -2.02426,-8.60218 -1.9472,-9.63728 0.0152,-0.20703 0.91572,-0.55632 1.9693,-0.7277 1.09806,-0.20968 3.09949,-0.8101 4.47377,-1.3739 l 2.49391,-1.06336 -0.0882,-2.17148 c -0.14584,-3.63292 -0.33127,-3.93815 -2.9441,-4.63226 -1.26202,-0.38537 -3.31669,-0.74649 -4.55891,-0.83896 l -2.19432,-0.16335 0.36985,-4.96844 0.36986,-4.96842 2.19433,0.16335 c 1.24221,0.0925 3.32771,0.0395 4.63287,-0.15472 2.68681,-0.29959 2.91538,-0.574 3.59753,-4.1453 l 0.40875,-2.13449 -2.30898,-1.420867 c -1.27564,-0.76109 -3.16614,-1.65121 -4.22103,-2.02118 -1.01661,-0.32547 -1.85527,-0.80422 -1.83985,-1.01125 0.077,-1.03509 3.06279,-9.264325 3.35265,-9.242748 0.0413,0.0031 0.89237,0.316224 1.90281,0.724507 0.96896,0.405204 2.97312,0.88746 4.41297,1.119538 l 2.59919,0.318389 1.44244,-2.598766 1.39798,-2.560442 -1.64164,-1.995697 c -0.91975,-1.067657 -2.52179,-2.477536 -3.5582,-3.095921 -1.47329,-0.900704 -1.85658,-1.34556 -1.60951,-1.868402 0.59858,-1.329337 5.14617,-7.610457 5.43603,-7.588879 0.207,0.01537 1.03949,0.576989 1.86582,1.221362 0.82634,0.644373 2.63098,1.569733 3.96639,2.085475 l 2.46713,0.974686 1.91155,-2.189146 1.91156,-2.189147 -0.85193,-1.978542 c -0.4612,-1.075157 -1.66288,-2.82993 -2.6623,-3.945153 l -1.84864,-2.011105 3.87021,-3.333971 3.87338,-3.37536 1.75664,2.12915 c 0.95497,1.153547 2.59529,2.607919 3.59022,3.223208 l 1.78922,1.132383 2.40666,-1.569431 2.44803,-1.566352 -0.55723,-2.581097 c -0.35377,-1.400224 -1.00169,-3.321944 -1.51659,-4.234554 -0.51499,-0.912635 -0.94714,-1.819093 -0.93172,-2.026116 0.0216,-0.289834 6.90684,-3.857315 8.31017,-4.25244 0.55365,-0.166956 0.93682,0.277909 1.60951,1.868401 0.45811,1.116552 1.61522,2.90965 2.53496,3.977317 l 1.73056,1.919037 2.73931,-1.003434 2.78367,-1.041776 0.07,-2.617677 c -0.0164,-1.458365 -0.19647,-3.511797 -0.45374,-4.53014 -0.2542,-1.059748 -0.43796,-1.947716 -0.43488,-1.989121 0.0216,-0.289825 8.6022,-2.024149 9.67868,-1.944015 0.24848,0.0185 0.48584,0.743929 0.58982,1.584323 0.1009,0.881802 0.70138,2.883258 1.33257,4.470671 l 1.20122,2.878831 2.17146,-0.08816 c 3.63298,-0.145878 3.93814,-0.331332 4.63226,-2.94417 0.38541,-1.261938 0.74652,-3.316708 0.83898,-4.558811 l 0.16336,-2.194392 4.9684,0.369855 4.9685,0.369863 -0.16336,2.19439 z"
           id="path7557" />
        <path
           id="path7584"
           d="m 364.58062,120.51224 c -2.68114,0.13175 -6.36121,0.76215 -6.46208,1.10721 -0.0336,0.11501 -0.0268,1.65687 0.0314,3.3801 0.0589,2.93036 0.13893,3.36978 1.01873,6.1241 l 0.93922,2.97964 -1.14433,0.49778 c -1.47433,0.6302 -3.58572,1.80244 -4.90524,2.68598 l -1.03579,0.69597 -1.95258,-2.36032 c -1.83287,-2.2005 -2.1275,-2.47389 -4.64932,-4.16831 -1.45333,-1.00751 -2.76777,-1.84956 -2.88279,-1.88318 -0.32588,-0.0953 -3.0496,2.95796 -4.52488,5.08606 -0.73085,1.07645 -1.30982,1.9892 -1.30187,2.03315 0.0328,0.0303 1.11537,1.09598 2.43834,2.33588 2.19002,2.11762 2.53419,2.36389 4.79029,3.54366 1.32094,0.67748 2.54602,1.32694 2.68257,1.42928 0.23239,0.13038 0.0969,0.73584 -0.85571,3.9947 -0.95273,3.25886 -1.16482,3.8419 -1.43081,3.82657 -0.17016,0.0132 -1.55216,-0.10004 -3.03003,-0.24078 -2.53632,-0.22127 -2.95894,-0.19917 -5.94476,0.40531 -1.78251,0.33203 -3.26864,0.64664 -3.31259,0.6546 -0.0303,0.0328 -0.0525,0.96263 -0.0101,2.09867 0.0966,2.58766 0.77774,6.9484 1.10363,7.04367 0.13419,0.0393 1.67605,0.0322 3.39927,-0.0258 2.93036,-0.0589 3.36977,-0.13893 6.1241,-1.01874 l 2.97963,-0.93923 0.49779,1.14433 c 0.63581,1.45516 1.80243,3.58574 2.68597,4.90524 l 0.69599,1.03579 -2.39632,2.0045 c -2.22525,1.84643 -2.52903,2.17378 -4.15709,4.61097 -0.97713,1.4206 -1.81358,2.71586 -1.84721,2.83089 -0.10647,0.36422 2.86211,3.02157 5.07486,4.56321 1.07644,0.73086 1.98921,1.30983 2.03315,1.30186 0.0303,-0.0327 1.09597,-1.11536 2.33588,-2.43834 2.11761,-2.19 2.36388,-2.53418 3.54366,-4.79029 0.67748,-1.32092 1.32695,-2.546 1.42929,-2.68255 0.13036,-0.23239 0.73583,-0.0969 3.99469,0.85572 3.25885,0.95271 3.84191,1.16474 3.82657,1.43079 0.0132,0.17016 -0.10004,1.55218 -0.24078,3.03002 -0.22128,2.53633 -0.19917,2.95895 0.4053,5.94477 0.33203,1.78252 0.64665,3.26865 0.65462,3.3126 0.0327,0.0303 1.11362,0.0343 2.41422,-0.002 2.69474,-0.1065 6.62724,-0.74679 6.73371,-1.11102 0.0337,-0.11503 0.0268,-1.65687 -0.0314,-3.38011 -0.0589,-2.93035 -0.13893,-3.36976 -1.01874,-6.12409 l -0.93921,-2.97964 1.14431,-0.49778 c 1.47434,-0.6302 3.58574,-1.80244 4.90525,-2.68598 l 1.0358,-0.69598 1.97176,2.36594 c 1.82726,2.21966 2.14104,2.49866 4.60535,4.17626 1.45895,0.98835 2.75422,1.82479 2.86923,1.85841 0.36423,0.10649 3.02159,-2.86211 4.56321,-5.07486 0.73087,-1.07644 1.30984,-1.98919 1.30188,-2.03314 -0.0327,-0.0303 -1.11536,-1.09597 -2.41917,-2.33027 -2.19001,-2.11762 -2.51501,-2.35828 -4.79029,-3.54366 -1.3401,-0.68308 -2.56519,-1.33255 -2.70174,-1.4349 -0.23239,-0.13036 -0.0969,-0.73583 0.85572,-3.99469 0.95272,-3.25885 1.16476,-3.84192 1.43081,-3.82656 0.17015,-0.0132 1.55217,0.10004 3.03002,0.24076 2.53633,0.22129 2.95895,0.19919 5.94476,-0.4053 1.78252,-0.33202 3.26865,-0.64664 3.31259,-0.65461 0.0303,-0.0327 0.0343,-1.11362 -0.002,-2.41423 -0.10649,-2.69473 -0.7468,-6.62722 -1.11102,-6.73371 -0.11502,-0.0336 -1.65688,-0.0268 -3.38011,0.0314 -2.93035,0.0589 -3.36977,0.13894 -6.12409,1.01874 l -2.97964,0.93923 -0.49779,-1.14432 c -0.63019,-1.47435 -1.80243,-3.58573 -2.68597,-4.90524 l -0.69598,-1.0358 2.36593,-1.97176 c 2.21965,-1.82726 2.49866,-2.14105 4.17627,-4.60536 0.98834,-1.45894 1.82479,-2.75421 1.85841,-2.86924 0.10648,-0.36421 -2.8621,-3.02157 -5.07486,-4.56321 -1.07644,-0.73087 -1.9892,-1.30982 -2.03314,-1.30186 -0.0303,0.0327 -1.09597,1.11535 -2.33588,2.43833 -2.11761,2.19001 -2.36389,2.53418 -3.54366,4.7903 -0.67749,1.32092 -1.32694,2.54601 -1.42929,2.68256 -0.13036,0.23238 -0.73584,0.0969 -3.99469,-0.85572 -3.69976,-1.08161 -3.84752,-1.1456 -3.83688,-1.53786 0.0234,-0.22208 0.13837,-1.54096 0.25668,-2.94213 0.21715,-2.30865 0.18472,-2.83833 -0.40294,-5.88166 -0.35355,-1.85124 -0.72007,-3.37334 -0.8351,-3.40697 -0.0959,-0.028 -1.23188,0.0144 -2.51333,0.0559 z m 6.08096,25.74872 c 2.8654,1.58678 4.62065,5.26276 4.11444,8.63134 -1.02127,6.83862 -9.12702,9.79581 -14.34167,5.21252 -4.40423,-3.86776 -3.54486,-11.14907 1.6385,-14.00343 2.74431,-1.48661 5.70415,-1.43283 8.58873,0.15957 z"
           inkscape:connector-curvature="0"
           style="fill:#808080;stroke:none" />
      </g>
      <rect
         transform="scale(-1,-1)"
         ry="0"
         y="-233.79076"
         x="-240.71431"
         height="225"
         width="219.28572"
         id="rect7675"
         style="fill:url(#linearGradient7677);fill-opacity:1;stroke:none;stroke-opacity:1" />
    </g>
    <text
       xml:space="preserve"
       style="font-style:normal;font-weight:normal;line-height:0%;font-family:sans-serif;letter-spacing:0px;word-spacing:0px;fill:#000000;fill-opacity:1;stroke:none;stroke-width:1px;stroke-linecap:butt;stroke-linejoin:miter;stroke-opacity:1"
       x="169.16376"
       y="126.6707"
       id="text6573"
       inkscape:transform-center-x="324.59382"
       inkscape:transform-center-y="167.3164"><tspan
         sodipodi:role="line"
         id="tspan6575"
         x="169.16376"
         y="126.6707"
         style="font-style:normal;font-variant:normal;font-weight:bold;font-stretch:normal;font-size:132.50782776px;line-height:1.25;font-family:monospace;-inkscape-font-specification:'monospace Bold'">rvt</tspan></text>
    <path
       style="fill:none;fill-rule:evenodd;stroke:#000000;stroke-width:1px;stroke-linecap:butt;stroke-linejoin:miter;stroke-opacity:1"
       d="M 239.99999,200.93364 352.85714,-5.4949395"
       id="path7695"
       inkscape:connector-curvature="0" />
    <g
       transform="translate(26.42857,227.85714)"
       id="g7697">
      <g
         transform="translate(-7.1428559,74.285715)"
         style="fill:#808080"
         id="g7699">
        <g
           style="fill:#808080"
           transform="matrix(0.15475158,-0.00451327,0.00451327,0.15475158,35.202893,181.05927)"
           id="g7701">
          <path
             style="fill:#808080;stroke:none"
             inkscape:connector-curvature="0"
             d="m 1933.5231,-600.55259 c -2.125,6.625 -5.875,34.25 -5.5,40.375 l 0.375,7.375 -12.625,2.125 c -6.875,1.125 -16.75,3.25 -21.875,4.75 -5.25,1.5 -9.75,2.625 -10.125,2.625 -0.5,0 -1.75,-3 -3,-6.625 -1.125,-3.5 -6.5,-13.125 -12,-21.125 l -9.75,-14.75 -6.625,2.625 c -13.625,5.25 -25.875,11.625 -25.875,13.25 0,5.5 8,35.375 10.625,40 l 3.125,5.25 -10.25,6.375 c -5.75,3.375 -14.25,9.375 -19.125,13.125 l -8.75,6.875 -4.75,-5 c -2.625,-2.75 -11.5,-9.5 -19.625,-15 l -15,-10 -12.5,12.625 c -7.125,7.25 -12.125,13.25 -11.625,14.125 5.25,8.75 21.375,29.875 25.375,33.125 l 5,4 -6.625,9 c -3.75,5 -9.375,13.75 -12.625,19.375 -3.25,5.625 -6.25,10.25 -6.5,10.25 -0.375,0 -3.25,-1.375 -6.5,-2.875 -3.25,-1.625 -12.375,-4.25 -20.25,-5.75 -7.875,-1.5 -15.625,-3.125 -17.25,-3.5 -2.375,-0.625 -3.25,0.375 -6.375,7.25 -2,4.375 -5,12 -6.75,16.875 l -3.125,8.875 15.25,9.5 c 8.375,5.25 18.125,10.5 21.625,11.5 l 6.375,1.875 -2.875,12.25 c -1.5,6.625 -3.25,14.875 -3.625,18.375 -0.5,3.375 -1.125,8.25 -1.5,10.75 l -0.625,4.625 -7.75,-0.5 c -5.375,-0.375 -12.75,0.5 -24,2.875 l -16.25,3.5 0,18.125 0,18 15.625,2.875 c 8.875,1.625 19.375,2.75 24.375,2.5 l 8.625,-0.25 2.125,12.625 c 1.125,6.875 3.25,16.75 4.75,21.875 1.5,5.25 2.625,9.75 2.625,10.125 0,0.5 -3,1.75 -6.5,3 -3.625,1.125 -13.25,6.5 -21.25,12 l -14.75,9.75 2.625,6.625 c 5.25,13.625 11.625,25.875 13.25,25.875 5.5,0 35.375,-8 40,-10.625 l 5.25,-3.125 6.375,10.25 c 3.375,5.75 9.375,14.25 13.125,19.125 l 6.875,8.75 -5,4.75 c -2.75,2.625 -9.5,11.5 -15,19.625 l -10,15 12.625,12.5 c 7.25,7.125 13.25,12.125 14.125,11.625 8.75,-5.25 29.875,-21.375 33.125,-25.375 l 4,-5 9,6.625 c 5,3.75 13.75,9.375 19.375,12.625 5.625,3.25 10.25,6.25 10.25,6.5 0,0.375 -1.375,3.25 -2.875,6.5 -1.625,3.25 -4.25,12.375 -5.75,20.25 -1.5,7.875 -3.125,15.625 -3.5,17.25 -0.625,2.375 0.375,3.25 7.25,6.375 4.375,2 12,5 16.875,6.75 l 8.875,3.125 9.625,-15.375 c 5.375,-8.5 10.5,-18.25 11.5,-21.625 l 1.875,-6.125 12.125,2.75 c 6.625,1.625 15,3.25 18.375,3.625 3.5,0.5 8.375,1.125 10.875,1.5 l 4.625,0.75 -0.625,7.625 c -0.375,5.625 0.375,12.25 2.875,24 l 3.5,16.25 18.125,0 18,0 2.875,-15.625 c 1.625,-8.875 2.75,-19.375 2.5,-24.375 l -0.25,-8.625 12.625,-2.125 c 6.875,-1.125 16.75,-3.25 21.875,-4.75 5.25,-1.5 9.75,-2.625 10.125,-2.625 0.5,0 1.75,3 3,6.5 1.125,3.625 6.5,13.25 12,21.25 l 9.75,14.75 6.625,-2.625 c 13.625,-5.25 25.875,-11.625 25.875,-13.25 0,-5.5 -8,-35.375 -10.625,-40 l -3.125,-5.25 10.25,-6.375 c 5.75,-3.375 14.375,-9.375 19.125,-13.125 l 8.75,-6.875 4.75,5 c 2.625,2.75 11.5,9.5 19.625,15 l 15,10 12.5,-12.625 c 7.125,-7.25 12.125,-13.25 11.625,-14.125 -5.25,-8.75 -21.375,-29.875 -25.375,-33.125 l -5,-4 6.625,-9 c 3.75,-5 9.375,-13.75 12.625,-19.375 3.25,-5.625 6.25,-10.25 6.5,-10.25 0.375,0 3.25,1.375 6.5,2.875 3.25,1.625 12.375,4.25 20.25,5.75 7.875,1.5 15.625,3.125 17.25,3.5 2.375,0.625 3.25,-0.375 6.375,-7.25 2,-4.375 5,-12 6.75,-16.875 l 3.125,-8.875 -15.375,-9.625 c -8.5,-5.375 -18.25,-10.5 -21.625,-11.5 l -6.125,-1.875 2.75,-12.125 c 1.625,-6.625 3.25,-15 3.625,-18.375 0.5,-3.5 1.125,-8.375 1.5,-10.875 l 0.75,-4.625 7.625,0.625 c 5.625,0.375 12.25,-0.375 24,-2.875 l 16.25,-3.5 0,-18 0,-18.125 -16.25,-2.875 c -9.25,-1.75 -19.75,-2.75 -24.375,-2.625 l -8,0.375 -2.125,-12.625 c -1.125,-6.875 -3.25,-16.75 -4.75,-21.875 -1.5,-5.25 -2.625,-9.75 -2.625,-10.125 0,-0.5 3,-1.75 6.625,-3 3.5,-1.125 13.125,-6.5 21.125,-12 l 14.75,-9.75 -2.625,-6.625 c -5.25,-13.625 -11.625,-25.875 -13.25,-25.875 -5.5,0 -35.375,8 -40,10.625 l -5.25,3.125 -6.375,-10.25 c -3.375,-5.75 -9.375,-14.375 -13.125,-19.125 l -6.875,-8.75 5,-4.75 c 2.75,-2.625 9.5,-11.5 15,-19.625 l 10,-15 -12.625,-12.5 c -7.25,-7.125 -13.25,-12.125 -14.125,-11.625 -8.75,5.25 -29.875,21.375 -33.125,25.375 l -4,5 -9,-6.625 c -5,-3.75 -13.75,-9.375 -19.375,-12.625 -5.625,-3.25 -10.25,-6.25 -10.25,-6.5 0,-0.375 1.375,-3.25 2.875,-6.5 1.625,-3.25 4.25,-12.375 5.75,-20.25 1.5,-7.875 3.125,-15.625 3.5,-17.25 0.625,-2.375 -0.375,-3.25 -7.25,-6.375 -4.375,-2 -12,-5 -16.875,-6.75 l -8.875,-3.125 -9.625,15.375 c -5.375,8.5 -10.5,18.25 -11.5,21.625 l -1.875,6.125 -12.125,-2.75 c -6.625,-1.625 -14.875,-3.25 -18.375,-3.625 -3.375,-0.5 -8.25,-1.125 -10.75,-1.5 l -4.625,-0.625 0.5,-7.75 c 0.375,-5.375 -0.5,-12.75 -2.875,-24 l -3.5,-16.25 -17.875,-0.375 c -13.625,-0.25 -17.875,0 -18.25,1.25 z m 38.125,102.25 c 66.125,6.625 122.25,46 149.75,105.125 23.875,51.375 22.75,109.875 -2.875,160.375 -33.875,66.625 -104.875,106.25 -178.375,99.5 -8.5,-0.75 -19.125,-2.25 -23.625,-3.25 -68.125,-15.375 -120.75,-65.875 -138.625,-133 -7.125,-26.875 -7.75,-58.625 -1.875,-85 20.375,-90.75 104.75,-152.75 195.625,-143.75 z"
             id="path7703" />
          <path
             style="fill:#808080;stroke:none"
             inkscape:connector-curvature="0"
             d="m 1939.1481,-449.42759 c -32.125,3.375 -66.125,22 -87.5,48.125 -53.875,65.25 -34.375,164 40,203.875 84.25,45.125 187.75,-9.875 197.375,-105 7.375,-73.375 -46.625,-139.625 -119.875,-147.125 -14.25,-1.375 -15,-1.375 -30,0.125 z"
             id="path7705" />
        </g>
        <path
           style="fill:#808080;stroke:none"
           inkscape:connector-curvature="0"
           d="m 348.44092,47.092446 c -30.38531,1.02708 -57.4809,13.78975 -76.79283,36.08296 -26.00547,29.996634 -32.77123,71.667224 -17.68572,108.386414 15.01507,36.54744 49.54049,61.55775 88.91525,64.48886 32.87451,2.44723 65.26084,-10.9208 86.76363,-35.79869 26.01152,-30.07944 32.81866,-71.74694 17.6504,-108.4723 C 432.085,75.009826 397.39086,50.028586 357.78754,47.371886 c -3.39825,-0.21133 -7.63373,-0.3601 -9.34662,-0.27944 z m 12.86491,28.51873 c -0.0925,1.2421 -0.0396,3.32769 0.15464,4.63277 0.29961,2.68681 0.57406,2.91542 4.14529,3.59759 l 2.13458,0.4087 1.61422,-2.66924 c 0.85927,-1.47646 1.74937,-3.36696 1.97972,-4.2241 0.22725,-0.81574 0.56951,-1.49802 0.8179,-1.47953 1.07646,0.0801 9.30572,3.06581 9.28415,3.35563 -0.003,0.0414 -0.31619,0.89239 -0.72447,1.90282 -0.40522,0.96903 -0.88748,2.97315 -1.1196,4.41302 l -0.31831,2.59919 2.55735,1.43937 2.60181,1.40103 1.77322,-1.45006 c 0.93421,-0.80474 2.38554,-2.40366 3.13741,-3.55504 1.07243,-1.54386 1.60937,-2.04512 2.09082,-1.80111 1.28786,0.59546 7.56902,5.14307 7.54745,5.4329 -0.0152,0.20704 -0.57699,1.03951 -1.22134,1.86584 -0.64445,0.82631 -1.56976,2.63092 -2.08546,3.96641 l -0.97473,2.46706 2.18912,1.91155 2.18923,1.911554 1.97844,-0.85191 c 1.07517,-0.46119 2.83001,-1.662824 3.94526,-2.662264 l 2.0524,-1.84559 3.33094,3.911664 3.33401,3.87026 -2.12923,1.75661 c -1.15045,0.91356 -2.60167,2.51247 -3.21707,3.50749 l -1.09092,1.79228 1.52497,2.44497 1.56636,2.44805 2.58413,-0.59866 c 1.39717,-0.31233 3.31883,-0.9603 4.23146,-1.47522 0.91263,-0.51492 1.81909,-0.94705 2.02609,-0.93164 0.28987,0.0216 3.85733,6.90679 4.25557,8.2687 0.17001,0.51225 -0.4052,0.96903 -2.09082,1.80111 -1.25003,0.57307 -3.04624,1.77162 -3.98045,2.57636 l -1.69652,1.53904 1.00027,2.78061 1.04485,2.74229 2.61768,0.07 c 1.45846,-0.0163 3.51183,-0.19654 4.5302,-0.4538 1.05977,-0.25417 1.94774,-0.43787 1.98911,-0.43479 0.16563,0.0123 1.35678,5.26349 1.68413,7.57767 0.39777,2.48595 0.0709,2.96123 -1.79219,2.82254 -0.49684,-0.037 -2.28513,0.49601 -3.91702,1.16556 l -2.9647,1.23646 0.0881,2.17147 c 0.14584,3.63294 0.33139,3.93817 2.94422,4.63229 1.2619,0.38536 3.31669,0.74649 4.55878,0.83895 l 2.19434,0.16335 -0.36985,4.96843 -0.36986,4.96844 -2.19434,-0.16336 c -1.24209,-0.0925 -3.32771,-0.0396 -4.63276,0.15472 -2.6868,0.29959 -2.91549,0.574 -3.59763,4.14528 l -0.40864,2.13451 2.66915,1.61421 c 1.47648,0.85932 3.36697,1.74944 4.22411,1.97978 0.81578,0.22725 1.49806,0.56948 1.47956,0.81791 -0.0802,1.07649 -3.06575,9.30573 -3.35562,9.28416 -0.0413,-0.003 -0.89236,-0.31623 -1.9028,-0.72452 -0.96906,-0.4052 -2.97313,-0.88745 -4.41309,-1.11954 l -2.59919,-0.31839 -1.44244,2.59877 -1.39787,2.56045 1.64164,1.99569 c 0.91965,1.06766 2.52169,2.47754 3.5581,3.09592 1.47339,0.9007 1.85657,1.34556 1.6095,1.86841 -0.59857,1.32932 -5.14616,7.61044 -5.43603,7.58886 -0.20701,-0.0152 -1.03949,-0.57699 -1.86582,-1.22136 -0.82633,-0.64438 -2.63086,-1.56974 -3.96639,-2.08548 l -2.467,-0.97467 -1.91157,2.18914 -1.91156,2.18915 0.85185,1.97853 c 0.46128,1.07517 1.66285,2.82993 2.66227,3.94515 l 1.84876,2.01112 -3.87031,3.33396 -3.87339,3.37536 -1.75653,-2.12913 c -0.95497,-1.15356 -2.51255,-2.60177 -3.50758,-3.21706 l -1.83049,-1.13545 -2.44815,1.56633 -2.44801,1.56635 0.5987,2.58419 c 0.31228,1.39714 0.96021,3.31886 1.47521,4.23148 0.51488,0.91263 0.94702,1.81907 0.93162,2.02611 -0.0216,0.28982 -6.90685,3.8573 -8.26868,4.25552 -0.51228,0.17004 -0.96907,-0.4052 -1.8011,-2.09082 -0.57311,-1.25002 -1.77171,-3.04621 -2.57646,-3.98039 l -1.53896,-1.69664 -2.78058,1.00036 -2.74229,1.04486 -0.0701,2.61768 c 0.0164,1.45836 0.19657,3.5118 0.45386,4.53013 0.25418,1.05975 0.43783,1.94772 0.43475,1.98912 -0.0216,0.28984 -8.60219,2.02415 -9.67867,1.94402 -0.24837,-0.0186 -0.48584,-0.74393 -0.58674,-1.62572 -0.10398,-0.84041 -0.70435,-2.84185 -1.33555,-4.42926 l -1.20121,-2.87884 -2.17158,0.0882 c -3.63286,0.14589 -3.93813,0.33133 -4.63225,2.94419 -0.3853,1.26193 -0.74641,3.31669 -0.83887,4.55881 l -0.16336,2.19439 -4.9685,-0.36987 -4.96839,-0.36985 0.16336,-2.19439 c 0.0925,-1.24211 0.0396,-3.32769 -0.15475,-4.63277 -0.29961,-2.68683 -0.57394,-2.91541 -4.14528,-3.59761 l -2.13446,-0.40869 -1.42087,2.30895 c -0.76112,1.2756 -1.6512,3.16608 -2.02121,4.221 -0.32542,1.0166 -0.80426,1.85525 -1.01126,1.83984 -1.0351,-0.077 -9.26435,-3.06273 -9.24278,-3.35256 0.003,-0.0414 0.31629,-0.89239 0.7246,-1.90282 0.4052,-0.96902 0.88736,-2.97315 1.11948,-4.41302 l 0.31842,-2.59917 -2.55736,-1.43938 -2.60193,-1.40104 -1.77321,1.45006 c -0.9342,0.80474 -2.38553,2.40366 -3.13729,3.55506 -1.07255,1.54384 -1.60948,2.0451 -2.09081,1.80111 -1.28799,-0.59548 -7.56916,-5.1431 -7.54758,-5.43292 0.0152,-0.20703 0.57699,-1.0395 1.22144,-1.86583 0.64435,-0.82632 1.56966,-2.63093 2.08548,-3.96642 l 0.97463,-2.46706 -2.18914,-1.91154 -2.1922,-1.87015 -1.9341,0.81358 c -1.07517,0.4612 -2.87126,1.65974 -3.9865,2.6592 l -2.05253,1.84558 -3.33092,-3.91167 -3.33391,-3.87025 2.12911,-1.75662 c 1.15045,-0.91356 2.60178,-2.51247 3.21707,-3.5075 l 1.09093,-1.79227 -1.52487,-2.44496 -1.56636,-2.44805 -2.58425,0.59866 c -1.39705,0.31232 -3.3188,0.96029 -4.23143,1.47521 -0.91264,0.51493 -1.81911,0.94705 -2.02611,0.93165 -0.28985,-0.0216 -3.85733,-6.90679 -4.25249,-8.3101 -0.16693,-0.55367 0.27801,-0.93687 1.86841,-1.6095 1.11655,-0.45812 2.90969,-1.61525 3.97737,-2.53498 l 1.91904,-1.73062 -1.00347,-2.73922 -1.04176,-2.78368 -2.61768,-0.07 c -1.45834,0.0164 -3.51182,0.19654 -4.5301,0.4538 -1.05975,0.25418 -1.94772,0.43788 -1.9891,0.43479 -0.28987,-0.0216 -2.02426,-8.60218 -1.9472,-9.63728 0.0152,-0.20703 0.91572,-0.55632 1.9693,-0.7277 1.09806,-0.20968 3.09949,-0.8101 4.47377,-1.3739 l 2.49391,-1.06336 -0.0882,-2.17148 c -0.14584,-3.63292 -0.33127,-3.93815 -2.9441,-4.63226 -1.26202,-0.38537 -3.31669,-0.74649 -4.55891,-0.83896 l -2.19432,-0.16335 0.36985,-4.96844 0.36986,-4.96842 2.19433,0.16335 c 1.24221,0.0925 3.32771,0.0395 4.63287,-0.15472 2.68681,-0.29959 2.91538,-0.574 3.59753,-4.1453 l 0.40875,-2.13449 -2.30898,-1.42086 c -1.27564,-0.76109 -3.16614,-1.65121 -4.22103,-2.02118 -1.01661,-0.32547 -1.85527,-0.80422 -1.83985,-1.01125 0.077,-1.03509 3.06279,-9.26433 3.35265,-9.24275 0.0413,0.003 0.89237,0.31622 1.90281,0.72451 0.96896,0.4052 2.97312,0.88746 4.41297,1.11953 l 2.59919,0.31839 1.44244,-2.59876 1.39798,-2.56044 -1.64164,-1.9957 c -0.91975,-1.06766 -2.52179,-2.47754 -3.5582,-3.09592 -1.47329,-0.90071 -1.85658,-1.34556 -1.60951,-1.8684 0.59858,-1.32934 5.14617,-7.61046 5.43603,-7.58888 0.207,0.0154 1.03949,0.57699 1.86582,1.22136 0.82634,0.64437 2.63098,1.56973 3.96639,2.08547 l 2.46713,0.97469 1.91155,-2.18915 1.91156,-2.18914 -0.85193,-1.97855 c -0.4612,-1.07515 -1.66288,-2.829934 -2.6623,-3.945154 l -1.84864,-2.0111 3.87021,-3.33397 3.87338,-3.37536 1.75664,2.12915 c 0.95497,1.15354 2.59529,2.60791 3.59022,3.2232 l 1.78922,1.13239 2.40666,-1.56943 2.44803,-1.56636 -0.55723,-2.58109 c -0.35377,-1.40023 -1.00169,-3.32195 -1.51659,-4.23456 -0.51499,-0.91263 -0.94714,-1.81909 -0.93172,-2.02611 0.0216,-0.28984 6.90684,-3.85732 8.31017,-4.25244 0.55365,-0.16696 0.93682,0.27791 1.60951,1.8684 0.45811,1.11655 1.61522,2.90965 2.53496,3.97731 l 1.73056,1.91904 2.73931,-1.00343 2.78367,-1.04178 0.07,-2.61768 c -0.0164,-1.45836 -0.19647,-3.51179 -0.45374,-4.53014 -0.2542,-1.05974 -0.43796,-1.94771 -0.43488,-1.98912 0.0216,-0.28982 8.6022,-2.02415 9.67868,-1.94401 0.24848,0.0185 0.48584,0.74393 0.58982,1.58432 0.1009,0.8818 0.70138,2.88326 1.33257,4.47067 l 1.20122,2.87883 2.17146,-0.0882 c 3.63298,-0.14587 3.93814,-0.33133 4.63226,-2.94417 0.38541,-1.26193 0.74652,-3.3167 0.83898,-4.55881 l 0.16336,-2.19439 4.9684,0.36986 4.9685,0.36986 -0.16336,2.19439 z"
           id="path7707" />
        <path
           id="path7709"
           d="m 347.59302,164.21795 c -1.09786,1.26368 -2.39572,3.19928 -2.27889,3.39895 0.039,0.0665 0.75876,0.7532 1.58514,1.49791 1.38788,1.28438 1.62678,1.44499 3.28775,2.28174 l 1.79139,0.91088 -0.26328,0.73685 c -0.34438,0.94438 -0.71215,2.41749 -0.8718,3.40563 l -0.12421,0.77675 -1.94156,-0.17848 c -1.81549,-0.16078 -2.06996,-0.15068 -3.948,0.22451 -1.09675,0.2023 -2.0565,0.41629 -2.12185,0.45294 -0.18532,0.10362 0.0569,2.69349 0.40851,4.30834 0.18447,0.80994 0.35859,1.47838 0.38247,1.49447 0.0282,-10e-4 0.99176,-0.0109 2.14019,-0.0507 1.93135,-0.0368 2.19464,-0.0813 3.71852,-0.56726 0.88606,-0.29051 1.71765,-0.55045 1.82427,-0.56602 0.16106,-0.0461 0.384,0.28564 1.48735,2.17145 1.10324,1.88591 1.28265,2.24203 1.16056,2.35466 -0.0671,0.0827 -0.7175,0.65273 -1.42188,1.25381 -1.1994,1.04068 -1.37183,1.24046 -2.3816,2.8525 -0.61625,0.94948 -1.11245,1.758 -1.12775,1.7813 0.002,0.0284 0.42489,0.45419 0.9716,0.94313 1.24484,1.11416 3.56682,2.75877 3.75201,2.65496 0.0764,-0.0426 0.73957,-0.7387 1.45761,-1.53894 1.23946,-1.34307 1.39224,-1.57628 2.17392,-3.20749 l 0.85146,-1.75902 0.74726,0.28823 c 0.95143,0.36524 2.44637,0.79411 3.44184,0.98736 l 0.78247,0.1506 -0.104,1.97344 c -0.10355,1.82585 -0.0827,2.10879 0.34663,3.93058 0.23808,1.07453 0.47865,2.02979 0.5176,2.09637 0.12357,0.21063 2.6422,0.0656 4.31559,-0.23906 0.80516,-0.15681 1.46896,-0.30792 1.48426,-0.33121 -0.002,-0.0283 -0.0448,-0.99139 -0.12383,-2.14035 -0.10274,-1.93118 -0.15629,-2.19579 -0.69521,-3.73515 -0.32125,-0.89531 -0.61007,-1.73515 -0.62932,-1.84223 -0.0517,-0.16253 0.27309,-0.37397 2.12485,-1.41216 1.8518,-1.03818 2.20247,-1.2053 2.31953,-1.07939 0.0847,0.0703 0.6784,0.73931 1.3047,1.46361 1.08357,1.23401 1.28962,1.41313 2.93917,2.47717 0.97231,0.64819 1.79928,1.17162 1.82317,1.18769 0.0282,-0.001 0.49737,-0.48507 1.043,-1.08549 1.11548,-1.25848 2.51786,-3.31193 2.39457,-3.5227 -0.039,-0.0666 -0.75878,-0.75321 -1.58516,-1.49791 -1.38789,-1.2844 -1.62677,-1.445 -3.28775,-2.28175 l -1.79139,-0.91087 0.26326,-0.73685 c 0.34439,-0.94439 0.71217,-2.41749 0.87183,-3.40564 l 0.1242,-0.77675 1.95245,0.17236 c 1.82197,0.17188 2.08735,0.15569 3.9327,-0.20117 1.09025,-0.21348 2.03911,-0.4213 2.10447,-0.45793 0.20722,-0.1156 -0.0244,-2.63803 -0.38674,-4.32057 -0.18447,-0.80993 -0.35857,-1.47839 -0.38244,-1.49447 -0.0282,0.001 -0.99177,0.0109 -2.12931,0.0446 -1.93135,0.0368 -2.18374,0.0752 -3.71853,0.56727 -0.89694,0.29659 -1.72854,0.55653 -1.83516,0.57211 -0.16106,0.0461 -0.384,-0.28563 -1.48735,-2.17146 -1.10324,-1.8859 -1.28274,-2.24197 -1.16055,-2.35466 0.0671,-0.0827 0.71752,-0.65273 1.42188,-1.25381 1.1994,-1.04067 1.37183,-1.24045 2.3816,-2.8525 0.61625,-0.94947 1.11245,-1.75799 1.12774,-1.7813 -0.002,-0.0283 -0.50292,-0.51358 -1.12316,-1.07924 -1.29893,-1.1576 -3.40411,-2.62901 -3.61109,-2.51298 -0.0652,0.037 -0.72876,0.73251 -1.44673,1.53282 -1.23947,1.34305 -1.39218,1.57636 -2.17392,3.2075 l -0.85146,1.75902 -0.74725,-0.28822 c -0.95793,-0.37637 -2.44638,-0.79412 -3.44184,-0.98737 l -0.78248,-0.15062 0.10609,-1.94513 c 0.11004,-1.81476 0.0848,-2.0805 -0.33573,-3.93669 -0.251,-1.09672 -0.49166,-2.05199 -0.53059,-2.11854 -0.12357,-0.21063 -2.6422,-0.0656 -4.31559,0.23905 -0.80518,0.1567 -1.46896,0.30792 -1.48425,0.33121 0.002,0.0283 0.0447,0.99139 0.12383,2.14034 0.10273,1.93118 0.15628,2.19579 0.69521,3.73516 0.32125,0.89531 0.61008,1.73514 0.62932,1.84222 0.0517,0.16254 -0.27309,0.37397 -2.12485,1.41216 -2.1024,1.17859 -2.19601,1.21636 -2.37379,1.03613 -0.0932,-0.10986 -0.65661,-0.7515 -1.25693,-1.43144 -0.97951,-1.13031 -1.2398,-1.35266 -2.90882,-2.45 -1.01356,-0.66925 -1.8797,-1.18545 -1.94507,-1.14881 -0.0546,0.0306 -0.52608,0.55977 -1.06054,1.15436 z m 14.60055,8.78583 c 1.97652,-0.57772 4.44446,0.27797 5.79182,2.0123 2.73802,3.51801 0.60866,8.48309 -3.7767,8.77597 -3.7023,0.24882 -6.71616,-3.39448 -5.80239,-7.00041 0.49523,-1.89813 1.79983,-3.20405 3.78727,-3.78786 z"
           inkscape:connector-curvature="0"
           style="fill:#808080;stroke:none" />
      </g>
      <rect
         ry="0"
         y="115.21933"
         x="235.00002"
         height="225"
         width="219.28572"
         id="rect7711"
         style="fill:url(#linearGradient7731);fill-opacity:1;stroke:none;stroke-opacity:1" />
    </g>
    <g
       id="g7713"
       transform="translate(0,323.57143)">
      <g
         id="g7715"
         transform="translate(-257.14286,2.1428571)"
         style="fill:#808080">
        <path
           id="path7717"
           d="m 385.82384,78.088093 c -2.47389,1.301592 -5.6721,3.512661 -5.61585,3.882781 0.0188,0.12337 0.70236,1.576228 1.51377,3.177953 1.34221,2.741212 1.61033,3.121206 3.65085,5.335557 l 2.19514,2.401217 -0.862,0.972479 c -1.11548,1.242409 -2.59453,3.276368 -3.45258,4.690033 l -0.67249,1.111971 -2.88014,-1.371488 c -2.69689,-1.273119 -3.09513,-1.401932 -6.22039,-1.894686 -1.81471,-0.313256 -3.42562,-0.53126 -3.54899,-0.51251 -0.34956,0.05312 -1.58094,4.13211 -2.03963,6.78938 -0.2175,1.33735 -0.36344,2.45344 -0.33663,2.49145 0.0443,0.0143 1.53442,0.54519 3.32807,1.13513 2.99775,1.03805 3.43087,1.11949 6.07926,1.24295 1.54479,0.0597 2.98675,0.13513 3.16063,0.17182 0.27669,0.0211 0.41468,0.65223 0.94591,4.1478 0.53122,3.49558 0.58696,4.13925 0.32903,4.24156 -0.15513,0.0867 -1.5096,0.58705 -2.9669,1.10304 -2.49214,0.90465 -2.88151,1.11108 -5.43553,2.99284 -1.53742,1.09617 -2.8026,2.04577 -2.8406,2.07259 -0.0143,0.0443 0.37306,0.93205 0.91192,1.98615 1.2274,2.40103 3.78521,6.21973 4.13477,6.16661 0.14394,-0.0219 1.59679,-0.70548 3.19851,-1.51689 2.74122,-1.34222 3.12121,-1.61034 5.33556,-3.65086 l 2.40122,-2.19514 0.97248,0.862 c 1.23928,1.09492 3.27637,2.59453 4.69002,3.45258 l 1.11198,0.67249 -1.38268,2.94495 c -1.29055,2.72058 -1.43367,3.16306 -1.90093,6.17926 -0.29894,1.77047 -0.52007,3.36081 -0.50132,3.48419 0.0594,0.39068 4.02929,1.59656 6.79562,2.08074 1.33736,0.21751 2.45346,0.36345 2.49146,0.33664 0.0143,-0.0443 0.54518,-1.53441 1.13511,-3.32807 1.03807,-2.99775 1.11951,-3.43088 1.24295,-6.07925 0.0598,-1.54479 0.13515,-2.98677 0.17183,-3.16065 0.0211,-0.27667 0.65224,-0.41467 4.14781,-0.9459 3.49556,-0.53122 4.13924,-0.58696 4.24156,-0.32904 0.0867,0.15513 0.58703,1.50962 1.10302,2.96691 0.90466,2.49214 1.1111,2.88151 2.99286,5.43553 1.09616,1.53742 2.04577,2.8026 2.07258,2.8406 0.0443,0.0143 1.06661,-0.45661 2.27896,-1.0616 2.49759,-1.28415 5.93004,-3.61497 5.87067,-4.00565 -0.0188,-0.12338 -0.70235,-1.57623 -1.51377,-3.17795 -1.34221,-2.74122 -1.61033,-3.1212 -3.65084,-5.33556 l -2.19514,-2.40122 0.86198,-0.97248 c 1.1155,-1.24241 2.59454,-3.27637 3.4526,-4.69002 l 0.67249,-1.11198 2.9007,1.36836 c 2.70001,1.29368 3.1188,1.41937 6.18238,1.92151 1.81159,0.29269 3.40194,0.51381 3.52531,0.49507 0.39069,-0.0594 1.59655,-4.02931 2.08075,-6.79563 0.2175,-1.33736 0.36344,-2.45345 0.33663,-2.49146 -0.0443,-0.0143 -1.53441,-0.54519 -3.3075,-1.13825 -2.99776,-1.03805 -3.41031,-1.12262 -6.07926,-1.24294 -1.56535,-0.0566 -3.00733,-0.13202 -3.1812,-0.1687 -0.27669,-0.0211 -0.41468,-0.65224 -0.9459,-4.14782 -0.53122,-3.49556 -0.58697,-4.13923 -0.32904,-4.24155 0.15513,-0.0867 1.50961,-0.58704 2.96689,-1.10302 2.49216,-0.904664 2.88153,-1.111097 5.43555,-2.992859 1.53742,-1.096163 2.80259,-2.045768 2.84059,-2.072582 0.0143,-0.04425 -0.45662,-1.066607 -1.0616,-2.278963 -1.28416,-2.497592 -3.61496,-5.930047 -4.00565,-5.870675 -0.12337,0.01875 -1.57622,0.702355 -3.17795,1.513771 -2.74122,1.342218 -3.12121,1.610332 -5.33556,3.650849 l -2.40121,2.195138 -0.97248,-0.861984 c -1.24241,-1.115494 -3.27637,-2.594541 -4.69004,-3.452593 l -1.11197,-0.672494 1.36837,-2.900693 c 1.29367,-2.70001 1.41936,-3.118818 1.92149,-6.182389 0.29269,-1.811589 0.51382,-3.401941 0.49507,-3.525311 -0.0594,-0.390679 -4.02929,-1.596555 -6.79562,-2.080748 -1.33735,-0.217503 -2.45346,-0.363441 -2.49145,-0.336634 -0.0143,0.04422 -0.54519,1.534408 -1.13513,3.328062 -1.03805,2.997756 -1.11949,3.430873 -1.24294,6.079269 -0.0598,1.544783 -0.13514,2.986759 -0.17182,3.160633 -0.0211,0.276683 -0.65225,0.414678 -4.14782,0.945901 -3.96849,0.603095 -4.13612,0.60755 -4.2983,0.232474 -0.0755,-0.219933 -0.54592,-1.515851 -1.04941,-2.890896 -0.8086,-2.275338 -1.07177,-2.76127 -2.96292,-5.376981 -1.14666,-1.592856 -2.16108,-2.869214 -2.28444,-2.850467 -0.10282,0.01563 -1.15692,0.554486 -2.34873,1.156345 z m 17.04748,21.643968 c 3.40245,0.24027 6.67388,2.940739 7.6749,6.343869 2.03825,6.90595 -4.31742,13.25732 -11.25386,11.219 -5.85701,-1.7185 -8.2425,-8.97139 -4.60122,-13.94253 1.93867,-2.6087 4.75718,-3.857479 8.18018,-3.620339 z"
           inkscape:connector-curvature="0"
           style="fill:#808080;stroke:none" />
        <path
           id="path7719"
           d="m 387.01234,13.521015 c -30.38531,1.027076 -57.4809,13.789754 -76.79283,36.082961 -26.00547,29.996628 -32.77123,71.667224 -17.68572,108.386414 15.01507,36.54744 49.54049,61.55775 88.91525,64.48886 32.87451,2.44723 65.26084,-10.9208 86.76363,-35.79869 26.01152,-30.07944 32.81866,-71.74694 17.6504,-108.472308 -15.20665,-36.769861 -49.90079,-61.751094 -89.50411,-64.407801 -3.39825,-0.211329 -7.63373,-0.360098 -9.34662,-0.279436 z m 12.86491,28.518726 c -0.0925,1.242102 -0.0396,3.327691 0.15464,4.632777 0.29961,2.686812 0.57406,2.915414 4.14529,3.597584 l 2.13458,0.408705 1.61422,-2.669246 c 0.85927,-1.47646 1.74937,-3.366956 1.97972,-4.224097 0.22725,-0.815738 0.56951,-1.498021 0.8179,-1.479531 1.07646,0.08013 9.30572,3.065811 9.28415,3.355636 -0.003,0.0414 -0.31619,0.892384 -0.72447,1.902816 -0.40522,0.969026 -0.88748,2.973151 -1.1196,4.41302 l -0.31831,2.599188 2.55735,1.439368 2.60181,1.401036 1.77322,-1.450059 c 0.93421,-0.804745 2.38554,-2.403658 3.13741,-3.55504 1.07243,-1.54386 1.60937,-2.045123 2.09082,-1.801113 1.28786,0.595462 7.56902,5.143073 7.54745,5.432905 -0.0152,0.207032 -0.57699,1.039506 -1.22134,1.865838 -0.64445,0.826307 -1.56976,2.630913 -2.08546,3.966412 l -0.97473,2.467056 2.18912,1.911548 2.18923,1.911556 1.97844,-0.851913 c 1.07517,-0.461188 2.83001,-1.662818 3.94526,-2.662257 l 2.0524,-1.845598 3.33094,3.91166 3.33401,3.870264 -2.12923,1.756611 c -1.15045,0.913559 -2.60167,2.512471 -3.21707,3.507484 l -1.09092,1.792287 1.52497,2.444968 1.56636,2.448048 2.58413,-0.598663 c 1.39717,-0.312325 3.31883,-0.960295 4.23146,-1.475217 0.91263,-0.514922 1.81909,-0.947051 2.02609,-0.931642 0.28987,0.02158 3.85733,6.906795 4.25557,8.268703 0.17001,0.512255 -0.4052,0.969026 -2.09082,1.801113 -1.25003,0.573065 -3.04624,1.771614 -3.98045,2.57636 l -1.69652,1.539035 1.00027,2.78061 1.04485,2.74229 2.61768,0.07 c 1.45846,-0.0163 3.51183,-0.19654 4.5302,-0.4538 1.05977,-0.25417 1.94774,-0.43787 1.98911,-0.43479 0.16563,0.0123 1.35678,5.263497 1.68413,7.577677 0.39777,2.48595 0.0709,2.96123 -1.79219,2.82254 -0.49684,-0.037 -2.28513,0.49601 -3.91702,1.16556 l -2.9647,1.23646 0.0881,2.17147 c 0.14584,3.63294 0.33139,3.93817 2.94422,4.63229 1.2619,0.38536 3.31669,0.74649 4.55878,0.83895 l 2.19434,0.16335 -0.36985,4.96843 -0.36986,4.96844 -2.19434,-0.16336 c -1.24209,-0.0925 -3.32771,-0.0396 -4.63276,0.15472 -2.6868,0.29959 -2.91549,0.574 -3.59763,4.14528 l -0.40864,2.13451 2.66915,1.61421 c 1.47648,0.85932 3.36697,1.74944 4.22411,1.97978 0.81578,0.22725 1.49806,0.56948 1.47956,0.81791 -0.0802,1.07649 -3.06575,9.30573 -3.35562,9.28416 -0.0413,-0.003 -0.89236,-0.31623 -1.9028,-0.72452 -0.96906,-0.4052 -2.97313,-0.88745 -4.41309,-1.11954 l -2.59919,-0.31839 -1.44244,2.59877 -1.39787,2.56045 1.64164,1.99569 c 0.91965,1.06766 2.52169,2.47754 3.5581,3.09592 1.47339,0.9007 1.85657,1.34556 1.6095,1.86841 -0.59857,1.32932 -5.14616,7.61044 -5.43603,7.58886 -0.20701,-0.0152 -1.03949,-0.57699 -1.86582,-1.22136 -0.82633,-0.64438 -2.63086,-1.56974 -3.96639,-2.08548 l -2.467,-0.97467 -1.91157,2.18914 -1.91156,2.18915 0.85185,1.97853 c 0.46128,1.07517 1.66285,2.82993 2.66227,3.94515 l 1.84876,2.01112 -3.87031,3.33396 -3.87339,3.37536 -1.75653,-2.12913 c -0.95497,-1.15356 -2.51255,-2.60177 -3.50758,-3.21706 l -1.83049,-1.13545 -2.44815,1.56633 -2.44801,1.56635 0.5987,2.58419 c 0.31228,1.39714 0.96021,3.31886 1.47521,4.23148 0.51488,0.91263 0.94702,1.81907 0.93162,2.02611 -0.0216,0.28982 -6.90685,3.8573 -8.26868,4.25552 -0.51228,0.17004 -0.96907,-0.4052 -1.8011,-2.09082 -0.57311,-1.25002 -1.77171,-3.04621 -2.57646,-3.98039 l -1.53896,-1.69664 -2.78058,1.00036 -2.74229,1.04486 -0.0701,2.61768 c 0.0164,1.45836 0.19657,3.5118 0.45386,4.53013 0.25418,1.05975 0.43783,1.94772 0.43475,1.98912 -0.0216,0.28984 -8.60219,2.02415 -9.67867,1.94402 -0.24837,-0.0186 -0.48584,-0.74393 -0.58674,-1.62572 -0.10398,-0.84041 -0.70435,-2.84185 -1.33555,-4.42926 l -1.20121,-2.87884 -2.17158,0.0882 c -3.63286,0.14589 -3.93813,0.33133 -4.63225,2.94419 -0.3853,1.26193 -0.74641,3.31669 -0.83887,4.55881 l -0.16336,2.19439 -4.9685,-0.36987 -4.96839,-0.36985 0.16336,-2.19439 c 0.0925,-1.24211 0.0396,-3.32769 -0.15475,-4.63277 -0.29961,-2.68683 -0.57394,-2.91541 -4.14528,-3.59761 l -2.13446,-0.40869 -1.42087,2.30895 c -0.76112,1.2756 -1.6512,3.16608 -2.02121,4.221 -0.32542,1.0166 -0.80426,1.85525 -1.01126,1.83984 -1.0351,-0.077 -9.26435,-3.06273 -9.24278,-3.35256 0.003,-0.0414 0.31629,-0.89239 0.7246,-1.90282 0.4052,-0.96902 0.88736,-2.97315 1.11948,-4.41302 l 0.31842,-2.59917 -2.55736,-1.43938 -2.60193,-1.40104 -1.77321,1.45006 c -0.9342,0.80474 -2.38553,2.40366 -3.13729,3.55506 -1.07255,1.54384 -1.60948,2.0451 -2.09081,1.80111 -1.28799,-0.59548 -7.56916,-5.1431 -7.54758,-5.43292 0.0152,-0.20703 0.57699,-1.0395 1.22144,-1.86583 0.64435,-0.82632 1.56966,-2.63093 2.08548,-3.96642 l 0.97463,-2.46706 -2.18914,-1.91154 -2.1922,-1.87015 -1.9341,0.81358 c -1.07517,0.4612 -2.87126,1.65974 -3.9865,2.6592 l -2.05253,1.84558 -3.33092,-3.91167 -3.33391,-3.87025 2.12911,-1.75662 c 1.15045,-0.91356 2.60178,-2.51247 3.21707,-3.5075 l 1.09093,-1.79227 -1.52487,-2.44496 -1.56636,-2.44805 -2.58425,0.59866 c -1.39705,0.31232 -3.3188,0.96029 -4.23143,1.47521 -0.91264,0.51493 -1.81911,0.94705 -2.02611,0.93165 -0.28985,-0.0216 -3.85733,-6.90679 -4.25249,-8.3101 -0.16693,-0.55367 0.27801,-0.93687 1.86841,-1.6095 1.11655,-0.45812 2.90969,-1.61525 3.97737,-2.53498 l 1.91904,-1.73062 -1.00347,-2.73922 -1.04176,-2.78368 -2.61768,-0.07 c -1.45834,0.0164 -3.51182,0.19654 -4.5301,0.4538 -1.05975,0.25418 -1.94772,0.43788 -1.9891,0.43479 -0.28987,-0.0216 -2.02426,-8.60218 -1.9472,-9.63728 0.0152,-0.20703 0.91572,-0.55632 1.9693,-0.7277 1.09806,-0.20968 3.09949,-0.8101 4.47377,-1.3739 l 2.49391,-1.06336 -0.0882,-2.17148 c -0.14584,-3.63292 -0.33127,-3.93815 -2.9441,-4.63226 -1.26202,-0.38537 -3.31669,-0.74649 -4.55891,-0.83896 l -2.19432,-0.16335 0.36985,-4.96844 0.36986,-4.96842 2.19433,0.16335 c 1.24221,0.0925 3.32771,0.0395 4.63287,-0.15472 2.68681,-0.29959 2.91538,-0.574 3.59753,-4.1453 l 0.40875,-2.13449 -2.30898,-1.420867 c -1.27564,-0.76109 -3.16614,-1.65121 -4.22103,-2.02118 -1.01661,-0.32547 -1.85527,-0.80422 -1.83985,-1.01125 0.077,-1.03509 3.06279,-9.264325 3.35265,-9.242748 0.0413,0.0031 0.89237,0.316224 1.90281,0.724507 0.96896,0.405204 2.97312,0.88746 4.41297,1.119538 l 2.59919,0.318389 1.44244,-2.598766 1.39798,-2.560442 -1.64164,-1.995697 c -0.91975,-1.067657 -2.52179,-2.477536 -3.5582,-3.095921 -1.47329,-0.900704 -1.85658,-1.34556 -1.60951,-1.868402 0.59858,-1.329337 5.14617,-7.610457 5.43603,-7.588879 0.207,0.01537 1.03949,0.576989 1.86582,1.221362 0.82634,0.644373 2.63098,1.569733 3.96639,2.085475 l 2.46713,0.974686 1.91155,-2.189146 1.91156,-2.189147 -0.85193,-1.978542 c -0.4612,-1.075157 -1.66288,-2.82993 -2.6623,-3.945153 l -1.84864,-2.011105 3.87021,-3.333971 3.87338,-3.37536 1.75664,2.12915 c 0.95497,1.153547 2.59529,2.607919 3.59022,3.223208 l 1.78922,1.132383 2.40666,-1.569431 2.44803,-1.566352 -0.55723,-2.581097 c -0.35377,-1.400224 -1.00169,-3.321944 -1.51659,-4.234554 -0.51499,-0.912635 -0.94714,-1.819093 -0.93172,-2.026116 0.0216,-0.289834 6.90684,-3.857315 8.31017,-4.25244 0.55365,-0.166956 0.93682,0.277909 1.60951,1.868401 0.45811,1.116552 1.61522,2.90965 2.53496,3.977317 l 1.73056,1.919037 2.73931,-1.003434 2.78367,-1.041776 0.07,-2.617677 c -0.0164,-1.458365 -0.19647,-3.511797 -0.45374,-4.53014 -0.2542,-1.059748 -0.43796,-1.947716 -0.43488,-1.989121 0.0216,-0.289825 8.6022,-2.024149 9.67868,-1.944015 0.24848,0.0185 0.48584,0.743929 0.58982,1.584323 0.1009,0.881802 0.70138,2.883258 1.33257,4.470671 l 1.20122,2.878831 2.17146,-0.08816 c 3.63298,-0.145878 3.93814,-0.331332 4.63226,-2.94417 0.38541,-1.261938 0.74652,-3.316708 0.83898,-4.558811 l 0.16336,-2.194392 4.9684,0.369855 4.9685,0.369863 -0.16336,2.19439 z"
           inkscape:connector-curvature="0"
           style="fill:#808080;stroke:none" />
        <path
           style="fill:#808080;stroke:none"
           inkscape:connector-curvature="0"
           d="m 364.58062,120.51224 c -2.68114,0.13175 -6.36121,0.76215 -6.46208,1.10721 -0.0336,0.11501 -0.0268,1.65687 0.0314,3.3801 0.0589,2.93036 0.13893,3.36978 1.01873,6.1241 l 0.93922,2.97964 -1.14433,0.49778 c -1.47433,0.6302 -3.58572,1.80244 -4.90524,2.68598 l -1.03579,0.69597 -1.95258,-2.36032 c -1.83287,-2.2005 -2.1275,-2.47389 -4.64932,-4.16831 -1.45333,-1.00751 -2.76777,-1.84956 -2.88279,-1.88318 -0.32588,-0.0953 -3.0496,2.95796 -4.52488,5.08606 -0.73085,1.07645 -1.30982,1.9892 -1.30187,2.03315 0.0328,0.0303 1.11537,1.09598 2.43834,2.33588 2.19002,2.11762 2.53419,2.36389 4.79029,3.54366 1.32094,0.67748 2.54602,1.32694 2.68257,1.42928 0.23239,0.13038 0.0969,0.73584 -0.85571,3.9947 -0.95273,3.25886 -1.16482,3.8419 -1.43081,3.82657 -0.17016,0.0132 -1.55216,-0.10004 -3.03003,-0.24078 -2.53632,-0.22127 -2.95894,-0.19917 -5.94476,0.40531 -1.78251,0.33203 -3.26864,0.64664 -3.31259,0.6546 -0.0303,0.0328 -0.0525,0.96263 -0.0101,2.09867 0.0966,2.58766 0.77774,6.9484 1.10363,7.04367 0.13419,0.0393 1.67605,0.0322 3.39927,-0.0258 2.93036,-0.0589 3.36977,-0.13893 6.1241,-1.01874 l 2.97963,-0.93923 0.49779,1.14433 c 0.63581,1.45516 1.80243,3.58574 2.68597,4.90524 l 0.69599,1.03579 -2.39632,2.0045 c -2.22525,1.84643 -2.52903,2.17378 -4.15709,4.61097 -0.97713,1.4206 -1.81358,2.71586 -1.84721,2.83089 -0.10647,0.36422 2.86211,3.02157 5.07486,4.56321 1.07644,0.73086 1.98921,1.30983 2.03315,1.30186 0.0303,-0.0327 1.09597,-1.11536 2.33588,-2.43834 2.11761,-2.19 2.36388,-2.53418 3.54366,-4.79029 0.67748,-1.32092 1.32695,-2.546 1.42929,-2.68255 0.13036,-0.23239 0.73583,-0.0969 3.99469,0.85572 3.25885,0.95271 3.84191,1.16474 3.82657,1.43079 0.0132,0.17016 -0.10004,1.55218 -0.24078,3.03002 -0.22128,2.53633 -0.19917,2.95895 0.4053,5.94477 0.33203,1.78252 0.64665,3.26865 0.65462,3.3126 0.0327,0.0303 1.11362,0.0343 2.41422,-0.002 2.69474,-0.1065 6.62724,-0.74679 6.73371,-1.11102 0.0337,-0.11503 0.0268,-1.65687 -0.0314,-3.38011 -0.0589,-2.93035 -0.13893,-3.36976 -1.01874,-6.12409 l -0.93921,-2.97964 1.14431,-0.49778 c 1.47434,-0.6302 3.58574,-1.80244 4.90525,-2.68598 l 1.0358,-0.69598 1.97176,2.36594 c 1.82726,2.21966 2.14104,2.49866 4.60535,4.17626 1.45895,0.98835 2.75422,1.82479 2.86923,1.85841 0.36423,0.10649 3.02159,-2.86211 4.56321,-5.07486 0.73087,-1.07644 1.30984,-1.98919 1.30188,-2.03314 -0.0327,-0.0303 -1.11536,-1.09597 -2.41917,-2.33027 -2.19001,-2.11762 -2.51501,-2.35828 -4.79029,-3.54366 -1.3401,-0.68308 -2.56519,-1.33255 -2.70174,-1.4349 -0.23239,-0.13036 -0.0969,-0.73583 0.85572,-3.99469 0.95272,-3.25885 1.16476,-3.84192 1.43081,-3.82656 0.17015,-0.0132 1.55217,0.10004 3.03002,0.24076 2.53633,0.22129 2.95895,0.19919 5.94476,-0.4053 1.78252,-0.33202 3.26865,-0.64664 3.31259,-0.65461 0.0303,-0.0327 0.0343,-1.11362 -0.002,-2.41423 -0.10649,-2.69473 -0.7468,-6.62722 -1.11102,-6.73371 -0.11502,-0.0336 -1.65688,-0.0268 -3.38011,0.0314 -2.93035,0.0589 -3.36977,0.13894 -6.12409,1.01874 l -2.97964,0.93923 -0.49779,-1.14432 c -0.63019,-1.47435 -1.80243,-3.58573 -2.68597,-4.90524 l -0.69598,-1.0358 2.36593,-1.97176 c 2.21965,-1.82726 2.49866,-2.14105 4.17627,-4.60536 0.98834,-1.45894 1.82479,-2.75421 1.85841,-2.86924 0.10648,-0.36421 -2.8621,-3.02157 -5.07486,-4.56321 -1.07644,-0.73087 -1.9892,-1.30982 -2.03314,-1.30186 -0.0303,0.0327 -1.09597,1.11535 -2.33588,2.43833 -2.11761,2.19001 -2.36389,2.53418 -3.54366,4.7903 -0.67749,1.32092 -1.32694,2.54601 -1.42929,2.68256 -0.13036,0.23238 -0.73584,0.0969 -3.99469,-0.85572 -3.69976,-1.08161 -3.84752,-1.1456 -3.83688,-1.53786 0.0234,-0.22208 0.13837,-1.54096 0.25668,-2.94213 0.21715,-2.30865 0.18472,-2.83833 -0.40294,-5.88166 -0.35355,-1.85124 -0.72007,-3.37334 -0.8351,-3.40697 -0.0959,-0.028 -1.23188,0.0144 -2.51333,0.0559 z m 6.08096,25.74872 c 2.8654,1.58678 4.62065,5.26276 4.11444,8.63134 -1.02127,6.83862 -9.12702,9.79581 -14.34167,5.21252 -4.40423,-3.86776 -3.54486,-11.14907 1.6385,-14.00343 2.74431,-1.48661 5.70415,-1.43283 8.58873,0.15957 z"
           id="path7721" />
      </g>
      <rect
         style="fill:url(#linearGradient7733);fill-opacity:1;stroke:none;stroke-opacity:1"
         id="rect7723"
         width="219.28572"
         height="225"
         x="-240.71431"
         y="-233.79076"
         ry="0"
         transform="scale(-1,-1)" />
    </g>
    <text
       inkscape:transform-center-y="167.3164"
       inkscape:transform-center-x="324.59382"
       id="text7725"
       y="548.4118"
       x="242.7352"
       style="font-style:normal;font-weight:normal;line-height:0%;font-family:sans-serif;letter-spacing:-4.6875px;word-spacing:0px;fill:#000000;fill-opacity:1;stroke:none;stroke-width:1px;stroke-linecap:butt;stroke-linejoin:miter;stroke-opacity:1"
       xml:space="preserve"><tspan
         style="font-style:normal;font-variant:normal;font-weight:bold;font-stretch:normal;font-size:132.50782776px;line-height:1.25;font-family:monospace;-inkscape-font-specification:'monospace Bold';letter-spacing:-4.6875px"
         y="548.4118"
         x="242.7352"
         id="tspan7727"
         sodipodi:role="line">rvt</tspan></text>
    <text
       xml:space="preserve"
       style="font-style:normal;font-weight:normal;line-height:0%;font-family:sans-serif;letter-spacing:0px;word-spacing:0px;fill:#000000;fill-opacity:1;stroke:#000000;stroke-width:10;stroke-linecap:butt;stroke-linejoin:miter;stroke-miterlimit:4;stroke-dasharray:none;stroke-opacity:1;"
       x="185.11472"
       y="471.38229"
       id="text7735"><tspan
         sodipodi:role="line"
         id="tspan7737"
         x="185.11472"
         y="471.38229"
         style="font-style:normal;font-variant:normal;font-weight:normal;font-stretch:normal;font-size:159.34158325px;line-height:1.25;font-family:sans-serif;-inkscape-font-specification:sans-serif;fill:#000000;fill-opacity:1;stroke:#000000;stroke-width:10;stroke-miterlimit:4;stroke-dasharray:none;stroke-opacity:1;"></tspan></text>
    <text
       xml:space="preserve"
       style="font-style:normal;font-weight:normal;font-size:92.97549438px;line-height:154.95916748px;font-family:sans-serif;letter-spacing:0px;word-spacing:0px;fill:#333333;fill-opacity:1;stroke:none;stroke-width:6.19836617px;stroke-linecap:butt;stroke-linejoin:miter;stroke-opacity:1;"
       x="51.749584"
       y="545.61798"
       id="text51"><tspan
         sodipodi:role="line"
         id="tspan49"
         x="51.749584"
         y="545.61798"
         style="font-style:normal;font-variant:normal;font-weight:bold;font-stretch:normal;font-family:sans-serif;-inkscape-font-specification:'sans-serif Bold';stroke-width:6.19836617px;fill:#333333;">APS</tspan></text>
  </g>
</svg>
